<svg height="1.5em" class="logo" aria-label="interrupted" viewBox="0 0 917 225" fill="none" xmlns="http://www.w3.org/2000/svg">
<path d="M178.414 65.7122C173.889 65.7122 170.407 64.6922 167.967 62.6521C165.517 60.5047 164.128 57.5519 163.799 53.7938C163.47 50.0358 164.652 46.922 167.345 44.4524C170.136 41.8755 173.739 40.587 178.156 40.587C182.141 40.587 185.457 41.5533 188.104 43.486C190.75 45.4188 192.229 48.1568 192.538 51.7001C192.914 55.995 191.814 59.4309 189.239 62.0079C186.654 64.4775 183.046 65.7122 178.414 65.7122ZM184.683 152.201C177.682 152.201 172.349 149.732 168.686 144.792C165.13 139.853 162.995 133.304 162.282 125.143C161.859 120.311 161.912 114.137 162.44 106.621C163.066 98.9979 164.062 91.9112 165.428 85.3615C166.097 81.9256 167.183 79.5633 168.686 78.2749C170.189 76.9864 172.718 76.3422 176.273 76.3422C181.767 76.3422 184.673 78.1675 184.992 81.8182C185.227 84.5025 184.748 90.7301 183.556 100.501C182.003 112.312 181.41 120.311 181.776 124.499C182.058 127.72 182.705 130.19 183.717 131.908C184.729 133.626 186.258 134.485 188.305 134.485C190.244 134.485 192.55 133.142 195.224 130.458C197.897 127.774 201.405 123.533 205.745 117.734C206.906 116.231 208.295 115.48 209.91 115.48C211.311 115.48 212.444 116.124 213.311 117.412C214.285 118.701 214.871 120.472 215.068 122.727C215.444 127.022 214.712 130.351 212.871 132.713C203.343 145.705 193.947 152.201 184.683 152.201Z" fill="var(--text-0)"/>
<path d="M216.045 152.201C211.951 152.201 208.855 150.054 206.756 145.759C204.765 141.464 203.356 134.592 202.53 125.143C201.309 111.185 202.143 97.9241 205.03 85.3615C205.727 82.2477 207.092 79.9929 209.124 78.597C211.255 77.0938 214.313 76.3422 218.299 76.3422C220.453 76.3422 221.985 76.6106 222.893 77.1475C223.802 77.6843 224.322 78.7044 224.454 80.2076C224.604 81.9256 224.134 85.791 223.044 91.8039C222.342 96.0988 221.809 99.8568 221.444 103.078C221.08 106.299 220.888 110.272 220.871 114.996C223.618 105.762 226.946 98.2462 230.856 92.4481C234.765 86.65 238.713 82.5161 242.698 80.0465C246.791 77.577 250.614 76.3422 254.169 76.3422C261.171 76.3422 264.977 79.8318 265.587 86.811C265.953 90.9986 265.43 98.5684 264.018 109.52C262.788 118.862 262.305 125.036 262.568 128.042C262.943 132.337 264.693 134.485 267.817 134.485C269.971 134.485 272.39 133.196 275.073 130.619C277.854 127.935 281.464 123.64 285.903 117.734C287.064 116.231 288.453 115.48 290.068 115.48C291.469 115.48 292.602 116.124 293.469 117.412C294.443 118.701 295.029 120.472 295.226 122.727C295.602 127.022 294.87 130.351 293.029 132.713C288.895 138.404 284.295 143.074 279.228 146.725C274.269 150.376 268.396 152.201 261.61 152.201C256.116 152.201 251.833 150.644 248.76 147.53C245.678 144.309 243.874 139.692 243.348 133.679C243.085 130.673 243.37 125.304 244.202 117.573C245.011 110.809 245.302 106.138 245.077 103.561C244.927 101.843 244.259 100.984 243.074 100.984C241.674 100.984 239.841 102.81 237.575 106.46C235.407 110.004 233.235 114.728 231.058 120.633C228.989 126.539 227.433 132.767 226.39 139.316C225.647 144.363 224.547 147.799 223.09 149.624C221.733 151.342 219.384 152.201 216.045 152.201Z" fill="var(--text-0)"/>
<path d="M353.584 115.48C354.984 115.48 356.118 116.124 356.985 117.412C357.959 118.701 358.545 120.472 358.742 122.727C359.117 127.022 358.385 130.351 356.545 132.713C352.411 138.404 347.756 143.074 342.582 146.725C337.407 150.376 331.265 152.201 324.156 152.201C302.181 152.201 289.847 136.793 287.152 105.977C286.739 101.253 286.483 96.4746 286.384 91.6428H280.082C276.85 91.6428 274.591 91.0523 273.302 89.8711C272.122 88.69 271.419 86.811 271.194 84.2341C270.668 78.2212 272.829 75.2148 277.676 75.2148H286.886C287.685 63.4037 289.542 52.6127 292.458 42.8418C295.373 33.0709 299.217 25.2863 303.988 19.4882C308.867 13.6901 314.377 10.791 320.517 10.791C325.041 10.791 328.769 12.7774 331.702 16.7502C334.635 20.723 336.364 25.7158 336.89 31.7287C338.345 48.3715 332.61 62.8669 319.687 75.2148H337.783C339.507 75.2148 340.779 75.5906 341.598 76.3422C342.418 77.0938 342.917 78.4896 343.095 80.5297C343.743 87.9384 337.981 91.6428 325.809 91.6428H306.096C306.35 97.0115 306.609 101.199 306.871 104.205C307.848 115.372 309.826 123.21 312.805 127.72C315.893 132.23 320.291 134.485 326 134.485C330.632 134.485 334.603 133.089 337.914 130.297C341.224 127.505 345.059 123.318 349.419 117.734C350.58 116.231 351.968 115.48 353.584 115.48ZM317.506 26.2527C315.89 26.2527 314.237 28.2928 312.548 32.3729C310.956 36.3457 309.559 41.9291 308.357 49.1231C307.253 56.2097 306.489 64.1017 306.064 72.7989C311.941 67.3228 316.145 61.2026 318.678 54.4381C321.309 47.5662 322.38 41.3386 321.892 35.7552C321.338 29.4202 319.876 26.2527 317.506 26.2527Z" fill="var(--text-0)"/>
<path d="M417.016 115.48C418.417 115.48 419.55 116.124 420.417 117.412C421.391 118.701 421.977 120.472 422.174 122.727C422.55 127.022 421.817 130.351 419.977 132.713C416.414 137.545 411.148 142.001 404.18 146.081C397.32 150.161 389.743 152.201 381.448 152.201C370.138 152.201 361.091 149.141 354.308 143.021C347.525 136.901 343.669 128.525 342.74 117.895C342.092 110.487 343.053 103.615 345.623 97.2799C348.183 90.8375 352.046 85.7373 357.211 81.9792C362.484 78.2212 368.621 76.3422 375.623 76.3422C381.871 76.3422 387.044 78.2212 391.143 81.9792C395.232 85.6299 397.554 90.6228 398.108 96.9578C398.756 104.367 396.621 110.755 391.705 116.124C386.886 121.385 378.258 125.573 365.819 128.686C368.944 133.626 374.277 136.095 381.817 136.095C386.665 136.095 392.013 134.431 397.862 131.102C403.809 127.666 408.805 123.21 412.851 117.734C414.012 116.231 415.4 115.48 417.016 115.48ZM374.256 92.126C370.271 92.126 367.08 94.4345 364.683 99.0515C362.393 103.669 361.535 109.252 362.108 115.802L362.136 116.124C368.36 114.621 373.172 112.366 376.571 109.359C379.971 106.353 381.497 102.863 381.149 98.8905C380.971 96.8504 380.238 95.2398 378.95 94.0587C377.76 92.7702 376.195 92.126 374.256 92.126Z" fill="var(--text-0)"/>
<path d="M423.067 152.201C418.974 152.201 415.878 150.054 413.779 145.759C411.787 141.464 410.379 134.592 409.552 125.143C408.332 111.185 409.165 97.9241 412.053 85.3615C412.75 82.2477 414.114 79.9929 416.147 78.597C418.277 77.0938 421.336 76.3422 425.321 76.3422C427.476 76.3422 429.007 76.6106 429.916 77.1475C430.825 77.6843 431.345 78.7044 431.476 80.2076C431.626 81.9256 431.156 85.791 430.066 91.8039C429.365 96.0988 428.831 99.8568 428.467 103.078C428.102 106.299 427.911 110.272 427.893 114.996C430.64 105.762 433.969 98.2462 437.878 92.4481C441.788 86.65 445.735 82.5161 449.72 80.0465C453.813 77.577 457.637 76.3422 461.192 76.3422C468.193 76.3422 471.999 79.8318 472.61 86.811C472.732 88.2069 472.543 91.5891 472.043 96.9578C471.556 101.253 471.36 103.937 471.454 105.011C471.783 108.769 473.293 110.648 475.986 110.648C479.003 110.648 482.674 108.286 487 103.561C488.279 102.165 489.672 101.467 491.18 101.467C492.58 101.467 493.714 102.112 494.581 103.4C495.546 104.581 496.117 106.192 496.296 108.232C496.643 112.205 495.838 115.319 493.881 117.573C491.137 120.687 487.817 123.372 483.921 125.626C480.123 127.774 475.962 128.848 471.438 128.848C465.729 128.848 461.239 127.398 457.97 124.499C454.808 121.6 453.011 117.681 452.579 112.742C452.438 111.131 452.459 109.52 452.641 107.91C452.669 105.762 452.65 104.313 452.584 103.561C452.434 101.843 451.766 100.984 450.582 100.984C448.966 100.984 446.971 102.81 444.597 106.46C442.322 110.004 440.15 114.728 438.081 120.633C436.012 126.539 434.456 132.767 433.413 139.316C432.669 144.363 431.569 147.799 430.113 149.624C428.755 151.342 426.407 152.201 423.067 152.201Z" fill="var(--text-0)"/>
<path d="M496.598 152.201C492.505 152.201 489.409 150.054 487.31 145.759C485.318 141.464 483.909 134.592 483.083 125.143C481.863 111.185 482.696 97.9241 485.583 85.3615C486.281 82.2477 487.645 79.9929 489.678 78.597C491.808 77.0938 494.866 76.3422 498.852 76.3422C501.006 76.3422 502.538 76.6106 503.447 77.1475C504.355 77.6843 504.875 78.7044 505.007 80.2076C505.157 81.9256 504.687 85.791 503.597 91.8039C502.895 96.0988 502.362 99.8568 501.998 103.078C501.633 106.299 501.442 110.272 501.424 114.996C504.171 105.762 507.5 98.2462 511.409 92.4481C515.319 86.65 519.266 82.5161 523.251 80.0465C527.344 77.577 531.168 76.3422 534.722 76.3422C541.724 76.3422 545.53 79.8318 546.14 86.811C546.263 88.2069 546.074 91.5891 545.573 96.9578C545.087 101.253 544.891 103.937 544.985 105.011C545.314 108.769 546.824 110.648 549.517 110.648C552.533 110.648 556.205 108.286 560.531 103.561C561.81 102.165 563.203 101.467 564.711 101.467C566.111 101.467 567.245 102.112 568.111 103.4C569.076 104.581 569.648 106.192 569.827 108.232C570.174 112.205 569.369 115.319 567.412 117.573C564.668 120.687 561.348 123.372 557.452 125.626C553.654 127.774 549.493 128.848 544.969 128.848C539.26 128.848 534.77 127.398 531.501 124.499C528.339 121.6 526.542 117.681 526.11 112.742C525.969 111.131 525.99 109.52 526.172 107.91C526.2 105.762 526.181 104.313 526.115 103.561C525.965 101.843 525.297 100.984 524.112 100.984C522.497 100.984 520.502 102.81 518.128 106.46C515.853 110.004 513.68 114.728 511.612 120.633C509.543 126.539 507.987 132.767 506.944 139.316C506.2 144.363 505.1 147.799 503.644 149.624C502.286 151.342 499.937 152.201 496.598 152.201Z" fill="var(--text-0)"/>
<path d="M575.138 152.201C570.291 152.201 566.112 150 562.604 145.598C559.193 141.088 557.197 135.505 556.615 128.848C555.911 120.795 555.806 113.44 556.301 106.782C556.787 100.018 557.94 92.8776 559.761 85.3615C560.556 82.1403 561.862 79.8318 563.679 78.4359C565.496 77.0401 568.505 76.3422 572.706 76.3422C575.076 76.3422 576.725 76.718 577.652 77.4696C578.687 78.2212 579.271 79.3486 579.402 80.8518C579.477 81.7108 579.138 84.6099 578.385 89.549C577.655 93.5218 577.108 97.1188 576.743 100.34C575.575 111.614 575.155 119.13 575.483 122.888C575.68 125.143 576.091 126.754 576.714 127.72C577.327 128.579 578.227 129.009 579.412 129.009C581.027 129.009 582.879 127.398 584.967 124.177C587.163 120.956 589.322 116.07 591.442 109.52C593.67 102.971 595.659 94.9177 597.408 85.3615C597.988 82.1403 599.079 79.8318 600.681 78.4359C602.39 77.0401 605.022 76.3422 608.577 76.3422C611.054 76.3422 612.806 76.6643 613.832 77.3085C614.848 77.8454 615.427 78.9191 615.567 80.5297C615.802 83.214 615.099 90.5691 613.457 102.595C611.643 116.339 610.876 124.821 611.158 128.042C611.336 130.082 611.908 131.693 612.873 132.874C613.829 133.948 615.007 134.485 616.407 134.485C618.562 134.485 620.98 133.196 623.663 130.619C626.445 127.935 630.055 123.64 634.494 117.734C635.655 116.231 637.043 115.48 638.659 115.48C640.059 115.48 641.193 116.124 642.06 117.412C643.034 118.701 643.62 120.472 643.817 122.727C644.192 127.022 643.46 130.351 641.62 132.713C637.486 138.404 632.885 143.074 627.818 146.725C622.859 150.376 616.987 152.201 610.2 152.201C605.03 152.201 601.032 150.215 598.207 146.242C595.49 142.269 593.817 136.686 593.188 129.492C591.995 136.793 589.741 142.43 586.426 146.403C583.102 150.268 579.339 152.201 575.138 152.201Z" fill="var(--text-0)"/>
<path d="M716.364 115.48C717.765 115.48 718.898 116.124 719.765 117.412C720.739 118.701 721.325 120.472 721.522 122.727C721.898 127.022 721.166 130.351 719.325 132.713C715.191 138.404 710.591 143.074 705.524 146.725C700.565 150.376 694.692 152.201 687.906 152.201C682.197 152.201 677.386 150.161 673.475 146.081C667.682 150.054 661.451 152.094 654.782 152.201C655.194 172.924 653.528 190.211 649.784 204.062C646.049 218.021 639.388 225 629.801 225C623.984 225 619.493 222.906 616.326 218.719C613.159 214.531 611.252 208.733 610.604 201.324C609.684 190.802 611.032 178.508 614.65 164.442C618.277 150.483 624.416 135.075 633.068 118.218C631.697 102.541 630.636 91.6428 629.886 85.5226C629.506 82.4087 630.529 79.9392 632.954 78.1138C635.38 76.2885 638.532 75.3758 642.41 75.3758C644.672 75.3758 646.33 75.859 647.384 76.8253C648.536 77.6843 649.283 79.456 649.626 82.1403C649.861 84.8246 650.088 86.811 650.308 88.0995C653.38 83.8046 656.506 80.7445 659.685 78.9191C662.855 76.9864 666.326 76.02 670.096 76.02C676.128 76.02 681.241 78.4359 685.433 83.2677C689.734 88.0995 692.227 94.4345 692.912 102.273C693.409 107.963 692.977 113.493 691.615 118.862C690.254 124.23 688.149 129.116 685.303 133.518C687.621 134.163 689.534 134.485 691.043 134.485C694.597 134.485 697.878 133.196 700.884 130.619C703.89 128.042 707.662 123.747 712.199 117.734C713.36 116.231 714.749 115.48 716.364 115.48ZM654.238 136.739C658.041 135.88 661.413 133.787 664.353 130.458C667.392 127.022 669.665 122.835 671.172 117.895C672.67 112.849 673.179 107.588 672.7 102.112C672.419 98.8905 671.561 96.4746 670.128 94.864C668.685 93.146 666.886 92.287 664.732 92.287C660.854 92.287 656.525 96.3672 651.745 104.528C652.05 109.252 652.602 116.178 653.4 125.304C653.832 130.243 654.111 134.055 654.238 136.739ZM629.714 209.216C632.622 209.216 634.492 202.881 635.323 190.211C636.164 177.649 636.032 161.972 634.927 143.182C631.234 153.919 628.468 164.173 626.63 173.944C624.791 183.715 624.163 191.929 624.745 198.586C625.045 202.022 625.706 204.653 626.728 206.478C627.641 208.304 628.637 209.216 629.714 209.216Z" fill="var(--text-0)"/>
<path d="M779.937 115.48C781.337 115.48 782.471 116.124 783.337 117.412C784.312 118.701 784.897 120.472 785.095 122.727C785.47 127.022 784.738 130.351 782.898 132.713C778.763 138.404 774.109 143.074 768.935 146.725C763.76 150.376 757.618 152.201 750.509 152.201C728.534 152.201 716.199 136.793 713.505 105.977C713.092 101.253 712.836 96.4746 712.736 91.6428H706.435C703.203 91.6428 700.943 91.0523 699.655 89.8711C698.475 88.69 697.772 86.811 697.547 84.2341C697.021 78.2212 699.182 75.2148 704.029 75.2148H713.239C714.037 63.4037 715.895 52.6127 718.81 42.8418C721.726 33.0709 725.57 25.2863 730.341 19.4882C735.22 13.6901 740.729 10.791 746.869 10.791C751.394 10.791 755.122 12.7774 758.055 16.7502C760.987 20.723 762.717 25.7158 763.242 31.7287C764.697 48.3715 758.963 62.8669 746.039 75.2148H764.136C765.86 75.2148 767.131 75.5906 767.951 76.3422C768.771 77.0938 769.27 78.4896 769.448 80.5297C770.096 87.9384 764.334 91.6428 752.161 91.6428H732.449C732.703 97.0115 732.961 101.199 733.224 104.205C734.201 115.372 736.179 123.21 739.158 127.72C742.245 132.23 746.644 134.485 752.353 134.485C756.985 134.485 760.956 133.089 764.267 130.297C767.577 127.505 771.412 123.318 775.771 117.734C776.932 116.231 778.321 115.48 779.937 115.48ZM743.859 26.2527C742.243 26.2527 740.59 28.2928 738.9 32.3729C737.309 36.3457 735.912 41.9291 734.71 49.1231C733.606 56.2097 732.842 64.1017 732.417 72.7989C738.294 67.3228 742.498 61.2026 745.031 54.4381C747.661 47.5662 748.733 41.3386 748.244 35.7552C747.69 29.4202 746.229 26.2527 743.859 26.2527Z" fill="var(--text-0)"/>
<path d="M843.369 115.48C844.769 115.48 845.903 116.124 846.769 117.412C847.744 118.701 848.33 120.472 848.527 122.727C848.902 127.022 848.17 130.351 846.33 132.713C842.767 137.545 837.501 142.001 830.533 146.081C823.673 150.161 816.095 152.201 807.801 152.201C796.49 152.201 787.444 149.141 780.661 143.021C773.878 136.901 770.022 128.525 769.092 117.895C768.445 110.487 769.406 103.615 771.976 97.2799C774.536 90.8375 778.399 85.7373 783.564 81.9792C788.837 78.2212 794.974 76.3422 801.976 76.3422C808.224 76.3422 813.397 78.2212 817.496 81.9792C821.585 85.6299 823.907 90.6228 824.461 96.9578C825.108 104.367 822.974 110.755 818.057 116.124C813.239 121.385 804.611 125.573 792.172 128.686C795.297 133.626 800.63 136.095 808.17 136.095C813.017 136.095 818.365 134.431 824.214 131.102C830.162 127.666 835.158 123.21 839.203 117.734C840.365 116.231 841.753 115.48 843.369 115.48ZM800.609 92.126C796.624 92.126 793.432 94.4345 791.035 99.0515C788.746 103.669 787.888 109.252 788.46 115.802L788.489 116.124C794.713 114.621 799.524 112.366 802.924 109.359C806.323 106.353 807.85 102.863 807.502 98.8905C807.324 96.8504 806.591 95.2398 805.302 94.0587C804.112 92.7702 802.548 92.126 800.609 92.126Z" fill="var(--text-0)"/>
<path d="M892.763 115.48C894.718 124.284 897.201 132.981 900.215 141.571C900.768 142.967 901.11 144.417 901.241 145.92C901.664 150.752 898.913 153.168 892.988 153.168C889.649 153.168 886.984 152.255 884.993 150.43C883.11 148.604 881.194 145.168 879.244 140.122L879.026 139.477C875.374 144.524 871.954 147.906 868.765 149.624C865.683 151.342 861.988 152.201 857.679 152.201C851.109 152.201 845.458 149.785 840.726 144.953C836.093 140.014 833.434 133.626 832.749 125.787C831.998 117.198 833.134 109.252 836.158 101.951C839.182 94.6492 843.67 88.69 849.622 84.073C855.564 79.3486 862.425 76.5032 870.204 75.5369C870.476 55.2434 872.81 37.5805 877.204 22.5483C881.707 7.51611 888.752 0 898.339 0C902.971 0 906.978 2.09377 910.36 6.28132C913.85 10.4689 915.966 16.8039 916.708 25.2863C917.74 37.0974 916.038 50.8948 911.601 66.6786C907.165 82.4624 900.885 98.7294 892.763 115.48ZM897.941 15.7838C894.818 15.7838 892.55 23.7294 891.139 39.6206C889.835 55.5118 889.516 72.7989 890.18 91.4818C899.883 65.7122 904.031 44.7745 902.623 28.6686C902.266 24.5884 901.612 21.4209 900.661 19.1661C899.817 16.9112 898.911 15.7838 897.941 15.7838ZM861.912 135.934C864.067 135.934 866.043 135.129 867.841 133.518C869.747 131.908 872.06 128.794 874.78 124.177C873.018 116.339 871.77 108.232 871.038 99.8568C870.747 96.5283 870.575 93.9513 870.523 92.126C864.749 93.8439 860.191 97.7631 856.848 103.883C853.505 110.004 852.158 116.768 852.805 124.177C853.491 132.015 856.526 135.934 861.912 135.934Z" fill="var(--text-0)"/>
<path d="M84.5149 25.9419C75.1979 28.162 67.3684 32.5048 63.5701 34.8682C49.376 44.2578 36.4404 60.6694 24.4385 74.4029C8.66273 92.4565 -2.76869 113.402 0.587574 127.495C2.67267 136.25 10.029 142.345 21.0544 139.718C27.0824 138.281 32.7994 134.882 36.1587 132.601C36.6404 132.274 37.2058 132.884 36.846 133.345C21.253 153.336 11.2601 172.309 14.6487 186.538C17.5381 198.671 27.612 201.718 38.327 199.164C57.8863 194.504 80.3815 170.796 100.153 148.886C111.754 136.033 113.545 123.407 111.508 114.851C107.096 96.3271 90.4806 93.82 79.3111 96.4815C68.3121 99.1024 52.1387 103.593 31.1595 119.487C30.66 119.866 30.0508 119.19 30.4764 118.726C46.0985 101.755 69.6522 90.8648 89.5584 88.6244C91.3688 88.4203 93.0342 87.5538 94.3189 86.259C108.626 71.8174 118.391 54.956 115.488 42.7666C111.666 26.7171 97.0884 22.9459 84.5149 25.9419Z" fill="var(--primary)"/>
</svg>
