<svg height="2em" class="logo" aria-label="interrupted" viewBox="0 0 878 288" fill="none" xmlns="http://www.w3.org/2000/svg">
<path fill-rule="evenodd" clip-rule="evenodd" d="M856.774 32C862.029 32.0002 866.577 34.3739 870.414 39.1222C874.374 43.8706 876.773 51.0549 877.615 60.6732C878.786 74.0663 876.855 89.7127 871.821 107.611C866.787 125.508 859.662 143.955 850.446 162.949C852.664 172.932 855.484 182.794 858.903 192.534C859.53 194.116 859.918 195.761 860.067 197.466C860.546 202.944 857.425 205.684 850.704 205.684C846.915 205.684 843.891 204.649 841.632 202.579C839.495 200.509 837.32 196.611 835.108 190.889L834.862 190.159C830.719 195.881 826.837 199.716 823.219 201.664C819.723 203.613 815.528 204.588 810.64 204.588C803.185 204.587 796.773 201.848 791.405 196.369C790.168 195.051 789.062 193.639 788.073 192.139C785.611 194.037 782.869 195.875 779.84 197.647C772.057 202.274 763.459 204.588 754.048 204.588C741.216 204.588 730.951 201.118 723.255 194.179C721.865 192.926 720.584 191.587 719.411 190.167C716.448 193.279 713.297 196.018 709.95 198.378C704.079 202.517 697.109 204.588 689.043 204.588C672.655 204.588 660.993 197.039 654.056 181.943C653.929 182.129 653.799 182.312 653.661 182.488C648.97 188.941 643.75 194.238 638.001 198.378C632.375 202.517 625.711 204.588 618.011 204.588C611.534 204.587 606.076 202.274 601.638 197.647C595.066 202.152 587.998 204.466 580.431 204.588C580.898 228.086 579.006 247.688 574.758 263.394C570.521 279.223 562.963 287.136 552.085 287.136C545.486 287.136 540.39 284.762 536.798 280.014C533.204 275.265 531.04 268.69 530.305 260.289C529.261 248.358 530.791 234.418 534.895 218.468C536.165 213.586 537.705 208.546 539.517 203.351C536.499 204.172 533.275 204.588 529.846 204.588C523.98 204.588 519.445 202.334 516.24 197.829C513.157 193.324 511.258 186.992 510.544 178.835C509.191 187.114 506.632 193.509 502.871 198.014C499.099 202.396 494.83 204.588 490.064 204.588C484.564 204.588 479.824 202.091 475.842 197.099C471.973 191.985 469.708 185.653 469.048 178.105C468.959 177.088 468.879 176.081 468.807 175.084C464.822 177.095 460.498 178.105 455.833 178.105C449.356 178.105 444.263 176.462 440.553 173.176C436.966 169.889 434.926 165.444 434.435 159.843C434.276 158.017 434.301 156.19 434.508 154.363C434.54 151.928 434.516 150.284 434.441 149.432C434.27 147.484 433.514 146.511 432.17 146.511C430.336 146.511 428.073 148.58 425.38 152.719C422.799 156.736 420.334 162.096 417.987 168.792C415.64 175.489 413.872 182.55 412.689 189.977C411.845 195.699 410.598 199.595 408.946 201.664C407.405 203.613 404.74 204.588 400.951 204.588C396.307 204.587 392.794 202.151 390.413 197.281C388.154 192.411 386.556 184.619 385.618 173.906C384.233 158.078 385.179 143.041 388.455 128.795C389.246 125.265 390.793 122.708 393.098 121.125C395.516 119.42 398.988 118.568 403.51 118.568C405.954 118.568 407.691 118.872 408.722 119.48C409.753 120.089 410.343 121.247 410.493 122.952C410.663 124.9 410.129 129.282 408.892 136.099C408.096 140.969 407.491 145.231 407.077 148.883C406.663 152.536 406.448 157.043 406.428 162.4C409.545 151.93 413.322 143.407 417.757 136.832C422.193 130.257 426.672 125.567 431.193 122.767C435.837 119.967 440.177 118.568 444.21 118.568C452.153 118.568 456.472 122.525 457.164 130.437C457.303 132.02 457.088 135.858 456.521 141.946C455.969 146.815 455.746 149.859 455.852 151.076C456.225 155.337 457.939 157.468 460.994 157.469C463.224 157.469 465.768 156.326 468.631 154.05C468.652 153.727 468.668 153.405 468.692 153.085C469.243 145.415 470.552 137.318 472.617 128.795C473.519 125.143 475.001 122.526 477.062 120.943C479.124 119.36 482.54 118.568 487.306 118.568C489.994 118.568 491.865 118.994 492.918 119.846C494.092 120.699 494.752 121.977 494.901 123.682C494.986 124.656 494.603 127.943 493.749 133.542C492.92 138.047 492.299 142.128 491.885 145.781C490.56 158.565 490.083 167.088 490.456 171.349C490.68 173.905 491.145 175.731 491.852 176.826C492.548 177.8 493.568 178.289 494.912 178.289C496.746 178.289 498.848 176.462 501.218 172.809C503.709 169.157 506.158 163.617 508.563 156.19C511.091 148.763 513.348 139.631 515.333 128.795C515.991 125.143 517.229 122.526 519.045 120.943C520.985 119.36 523.972 118.568 528.005 118.568C530.816 118.568 532.803 118.934 533.967 119.665C535.119 120.273 535.776 121.49 535.936 123.315C536.202 126.359 535.404 134.701 533.541 148.338C531.483 163.922 530.615 173.54 530.934 177.193C531.137 179.505 531.784 181.331 532.878 182.67C533.963 183.888 535.301 184.497 536.89 184.497C539.334 184.497 542.079 183.035 545.123 180.113C547.428 177.89 550.231 174.688 553.54 170.516C554.274 169.038 555.023 167.548 555.792 166.051C554.237 148.275 553.035 135.917 552.183 128.977C551.752 125.447 552.911 122.646 555.663 120.577C558.415 118.507 561.992 117.472 566.391 117.471C568.958 117.471 570.84 118.021 572.036 119.116C573.343 120.09 574.191 122.099 574.579 125.142C574.845 128.186 575.104 130.439 575.354 131.9C578.839 127.03 582.385 123.558 585.992 121.488C589.589 119.297 593.528 118.202 597.806 118.202C604.65 118.202 610.451 120.941 615.208 126.42C620.087 131.899 622.915 139.083 623.693 147.971C624.257 154.424 623.767 160.696 622.221 166.784C620.676 172.871 618.29 178.412 615.06 183.403C617.69 184.133 619.862 184.497 621.572 184.497C625.605 184.497 629.326 183.035 632.737 180.113C636.148 177.191 640.429 172.323 645.577 165.505C646.441 164.387 647.419 163.641 648.506 163.256C647.889 159.781 647.399 156.087 647.057 152.173C646.588 146.816 646.299 141.396 646.187 135.917H639.037C635.37 135.917 632.805 135.248 631.344 133.909C630.004 132.57 629.208 130.439 628.952 127.517C628.355 120.699 630.806 117.29 636.306 117.29H646.757C647.663 103.897 649.768 91.6591 653.077 80.5795C656.385 69.5004 660.747 60.674 666.16 54.0994C671.696 47.5247 677.947 44.2358 684.914 44.2358C690.047 44.2358 694.278 46.4893 697.605 50.9943C700.932 55.4988 702.895 61.1598 703.491 67.9772C705.142 86.8492 698.635 103.288 683.971 117.29H704.504C706.459 117.29 707.904 117.716 708.834 118.568C709.764 119.42 710.33 121.003 710.532 123.315C711.267 131.716 704.73 135.917 690.92 135.917H668.552C668.84 142.004 669.135 146.753 669.433 150.162C670.541 162.823 672.783 171.713 676.163 176.826C679.666 181.94 684.658 184.497 691.135 184.497C696.39 184.497 700.896 182.915 704.652 179.75C706.69 178.032 708.899 175.843 711.287 173.193C710.744 170.812 710.359 168.31 710.129 165.687C709.394 157.286 710.484 149.493 713.4 142.309C716.305 135.005 720.687 129.221 726.547 124.96C732.53 120.699 739.494 118.568 747.438 118.568C754.527 118.568 760.397 120.699 765.048 124.96C769.687 129.1 772.322 134.762 772.95 141.946C773.685 150.346 771.264 157.591 765.686 163.679C760.219 169.645 750.428 174.392 736.316 177.923C739.861 183.523 745.911 186.323 754.465 186.324C759.965 186.324 766.034 184.436 772.671 180.662C776.165 178.644 779.367 176.314 782.282 173.677C781.595 164.303 782.903 155.612 786.221 147.605C789.652 139.326 794.745 132.57 801.498 127.335C808.24 121.978 816.024 118.749 824.85 117.653C825.159 94.6421 827.809 74.6135 832.795 57.5681C837.903 40.5228 845.897 32 856.774 32ZM557.901 194.36C553.711 206.536 550.574 218.165 548.488 229.244C546.402 240.323 545.69 249.636 546.351 257.184C546.691 261.08 547.441 264.063 548.6 266.133C549.636 268.203 550.765 269.238 551.987 269.238C555.287 269.238 557.408 262.056 558.351 247.69C559.305 233.445 559.154 215.667 557.901 194.36ZM591.719 136.648C587.319 136.648 582.408 141.276 576.985 150.528C577.331 155.885 577.956 163.739 578.862 174.088C579.352 179.688 579.669 184.01 579.813 187.054C584.128 186.08 587.954 183.706 591.291 179.932C594.738 176.036 597.316 171.287 599.025 165.687C600.725 159.965 601.303 153.999 600.76 147.79C600.44 144.137 599.468 141.397 597.842 139.571C596.205 137.623 594.163 136.648 591.719 136.648ZM825.214 136.466C818.662 138.414 813.49 142.858 809.697 149.798C805.904 156.738 804.377 164.408 805.112 172.809C805.89 181.697 809.332 186.141 815.443 186.142C817.887 186.142 820.13 185.229 822.17 183.403C824.333 181.577 826.956 178.045 830.042 172.809C828.043 163.922 826.629 154.729 825.799 145.233C825.468 141.458 825.273 138.536 825.214 136.466ZM745.888 136.466C741.367 136.466 737.746 139.083 735.026 144.318C732.429 149.553 731.453 155.885 732.103 163.312L732.136 163.679C739.198 161.974 744.658 159.417 748.515 156.008C752.372 152.599 754.104 148.641 753.71 144.136C753.508 141.823 752.673 139.995 751.212 138.656C749.862 137.196 748.088 136.466 745.888 136.466ZM856.324 49.8977C852.779 49.8977 850.204 58.9092 848.603 76.9289C847.124 94.9482 846.761 114.551 847.515 135.736C858.525 106.514 863.231 82.7717 861.633 64.5085C861.228 59.882 860.488 56.2897 859.409 53.7329C858.453 51.1769 857.423 49.8986 856.324 49.8977ZM681.498 61.7698C679.665 61.7698 677.79 64.0835 675.873 68.7101C674.067 73.2148 672.481 79.545 671.117 87.7016C669.865 95.7374 668.997 104.689 668.515 114.551C675.183 108.342 679.954 101.4 682.827 93.73C685.812 85.9381 687.028 78.8763 686.475 72.5454C685.846 65.3621 684.187 61.77 681.498 61.7698Z" fill="var(--primary)"/>
<path fill-rule="evenodd" clip-rule="evenodd" d="M179.853 0C184.987 0 189.218 2.25357 192.545 6.75849C195.872 11.2631 197.834 16.9239 198.431 23.7414C200.082 42.6133 193.577 59.0521 178.913 73.0538H199.446C201.401 73.0539 202.844 73.48 203.774 74.3322C204.704 75.1844 205.269 76.7667 205.472 79.0794C206.207 87.4804 199.67 91.6816 185.859 91.6816H163.491C163.78 97.7687 164.074 102.517 164.373 105.926C165.48 118.588 167.725 127.477 171.106 132.591C174.609 137.704 179.598 140.261 186.075 140.261C191.33 140.261 195.838 138.68 199.595 135.514C201.633 133.796 203.841 131.605 206.23 128.954C205.686 126.574 205.298 124.073 205.069 121.451C204.334 113.05 205.423 105.257 208.339 98.0737C211.244 90.7684 215.629 84.9857 221.49 80.7243C227.472 76.463 234.436 74.3322 242.381 74.3322C249.469 74.3325 255.337 76.4633 259.987 80.7243C264.627 84.8639 267.262 90.5265 267.89 97.71C268.625 106.111 266.203 113.355 260.625 119.443C255.158 125.409 245.368 130.156 231.255 133.687C234.801 139.288 240.852 142.088 249.408 142.088C254.907 142.088 260.974 140.2 267.61 136.426C272.512 133.596 276.841 130.152 280.604 126.101C279.649 111.577 280.683 97.7301 283.712 84.5595C284.503 81.0286 286.053 78.4719 288.359 76.889C290.776 75.1846 294.246 74.3322 298.768 74.3322C301.212 74.3322 302.951 74.6354 303.982 75.2442C305.013 75.8531 305.601 77.0115 305.75 78.7157C305.92 80.664 305.389 85.0467 304.153 91.8635C303.357 96.7331 302.751 100.995 302.337 104.648C301.923 108.3 301.705 112.807 301.685 118.165C304.802 107.694 308.579 99.171 313.015 92.5964C317.45 86.0216 321.929 81.3315 326.451 78.5311C331.094 75.7308 335.434 74.3322 339.467 74.3322C347.411 74.3323 351.729 78.2885 352.422 86.2016C352.56 87.7844 352.345 91.6223 351.778 97.71C351.227 102.579 351.003 105.623 351.11 106.841C351.268 108.654 351.674 110.079 352.318 111.121L342.2 132.563C339.744 131.742 337.613 130.537 335.811 128.94C332.223 125.653 330.186 121.208 329.696 115.608C329.536 113.781 329.559 111.954 329.765 110.128C329.797 107.693 329.776 106.048 329.701 105.196C329.531 103.249 328.773 102.276 327.43 102.275C325.596 102.275 323.331 104.343 320.638 108.483C318.056 112.501 315.591 117.86 313.244 124.557C310.897 131.253 309.132 138.315 307.949 145.741C307.105 151.464 305.855 155.359 304.203 157.429C302.662 159.377 299.999 160.352 296.211 160.352C291.566 160.352 288.052 157.915 285.67 153.045C284.937 151.465 284.275 149.576 283.681 147.38C281.051 149.464 278.086 151.477 274.78 153.412C266.996 158.038 258.399 160.352 248.988 160.352C236.155 160.352 225.89 156.883 218.194 149.943C216.805 148.69 215.524 147.351 214.351 145.931C211.388 149.043 208.237 151.782 204.89 154.142C199.019 158.281 192.049 160.352 183.982 160.352C167.616 160.352 155.963 152.821 149.023 137.763C148.908 137.929 148.792 138.094 148.668 138.253C143.977 144.705 138.757 150.002 133.008 154.142C127.382 158.281 120.718 160.352 113.018 160.352C106.785 160.352 101.925 158.587 98.4381 155.056C94.9409 151.404 92.8944 146.167 92.2979 139.349C91.9996 135.94 92.3216 129.851 93.2658 121.085C94.1835 113.415 94.5145 108.118 94.2588 105.196C94.0883 103.248 93.3314 102.275 91.9874 102.275C90.3986 102.275 88.3173 104.343 85.7464 108.483C83.2869 112.501 80.8225 117.86 78.3529 124.557C76.0056 131.253 74.2409 138.315 73.0574 145.741C72.2137 151.464 70.9639 155.359 69.3117 157.429C67.7712 159.377 65.1079 160.352 61.3196 160.352C56.6752 160.352 53.1606 157.915 50.779 153.045C50.1694 151.731 49.6112 150.203 49.0978 148.463C41.2288 156.386 33.4445 160.352 25.7368 160.352C17.7928 160.352 11.7411 157.552 7.58453 151.951C3.55029 146.351 1.12935 138.923 0.31971 129.67C-0.159625 124.191 -0.0999819 117.19 0.498743 108.667C1.20907 100.023 2.33901 91.9865 3.88918 84.5595C4.64829 80.6633 5.87906 77.9836 7.58453 76.5226C9.28983 75.0617 12.1595 74.3324 16.1921 74.3322C22.4253 74.3322 25.7243 76.4028 26.0865 80.5424C26.3525 83.5869 25.8083 90.6487 24.4556 101.727C22.6941 115.12 22.0232 124.192 22.4387 128.94C22.7583 132.592 23.4922 135.393 24.6402 137.341C25.7882 139.288 27.5222 140.261 29.8434 140.261C32.0433 140.261 34.662 138.74 37.6956 135.696C39.8834 133.501 42.5586 130.384 45.7297 126.352C44.7458 111.737 45.7747 97.8062 48.8208 84.5595C49.6119 81.0286 51.1614 78.4719 53.4673 76.889C55.8848 75.1846 59.3544 74.3322 63.8764 74.3322C66.3207 74.3322 68.0597 74.6354 69.0907 75.2442C70.1213 75.8531 70.7096 77.0115 70.8587 78.7157C71.0289 80.664 70.4979 85.0467 69.2614 91.8635C68.4654 96.7331 67.8596 100.995 67.4459 104.648C67.0321 108.3 66.8143 112.807 66.7941 118.165C69.9111 107.694 73.688 99.171 78.1235 92.5964C82.5593 86.0216 87.0378 81.3315 91.5594 78.5311C96.2031 75.7308 100.542 74.3322 104.576 74.3322C112.519 74.3323 116.838 78.2885 117.53 86.2016C117.946 90.95 117.354 99.5353 115.751 111.954C114.356 122.547 113.805 129.548 114.104 132.957C114.53 137.827 116.515 140.261 120.059 140.261C122.504 140.261 125.248 138.8 128.292 135.878C131.448 132.834 135.545 127.966 140.581 121.27C141.429 120.172 142.386 119.428 143.448 119.037C142.83 115.557 142.342 111.858 141.999 107.937C141.53 102.58 141.239 97.1606 141.126 91.6816H133.976C130.31 91.6816 127.745 91.0124 126.283 89.6731C124.944 88.3338 124.147 86.2028 123.892 83.2811C123.295 76.4632 125.747 73.0542 131.246 73.0538H141.697C142.603 59.6608 144.711 47.4234 148.019 36.3437C151.327 25.2644 155.689 16.4382 161.102 9.8636C166.638 3.28932 172.887 0.000371229 179.853 0ZM240.828 92.2299C236.306 92.2301 232.685 94.8473 229.966 100.082C227.368 105.318 226.396 111.649 227.045 119.076L227.076 119.443C234.138 117.738 239.598 115.181 243.455 111.772C247.312 108.363 249.044 104.405 248.65 99.9004C248.447 97.587 247.616 95.7596 246.154 94.4203C244.804 92.9593 243.028 92.2299 240.828 92.2299ZM176.438 17.534C174.605 17.5347 172.729 19.8484 170.812 24.4744C169.007 28.979 167.421 35.3094 166.057 43.4658C164.804 51.5017 163.939 60.4531 163.458 70.3152C170.126 64.1057 174.896 57.1647 177.769 49.4942C180.754 41.7024 181.968 34.6405 181.414 28.3096C180.786 21.1261 179.127 17.534 176.438 17.534Z" fill="var(--text-0)"/>
<path d="M18.3293 33.7869C22.8512 33.7869 26.6141 34.8825 29.6168 37.0738C32.6196 39.2654 34.2978 42.3712 34.6493 46.3891C35.0753 51.2592 33.8255 55.1545 30.9036 58.0766C27.971 60.8768 23.878 62.2781 18.623 62.2783C13.4898 62.2783 9.5367 61.1201 6.76769 58.8067C3.98897 56.3719 2.41299 53.0245 2.0401 48.7641C1.66728 44.5027 3.00785 40.9707 6.06275 38.1704C9.22923 35.2483 13.3183 33.7869 18.3293 33.7869Z" fill="var(--text-0)"/>
<path d="M398.51 102.569C400.79 97.7253 406.566 95.6537 411.408 97.9138C416.257 100.179 418.364 105.947 416.081 110.8L372.495 203.429C370.215 208.274 364.437 210.347 359.594 208.086C354.744 205.821 352.639 200.053 354.922 195.199L398.51 102.569Z" fill="var(--primary)"/>
<path d="M366.51 66.5695C368.79 61.7258 374.566 59.6542 379.408 61.9142C384.257 64.1793 386.364 69.9475 384.081 74.801L340.495 167.43C338.215 172.275 332.437 174.347 327.594 172.086C322.744 169.821 320.639 164.053 322.922 159.199L366.51 66.5695Z" fill="var(--text-0)"/>
</svg>
