<svg height="1.5em" class="logo" aria-label="interrupted" viewBox="0 0 965 225" fill="none" xmlns="http://www.w3.org/2000/svg">
<path d="M226.414 65.7122C221.889 65.7122 218.407 64.6922 215.967 62.6521C213.517 60.5047 212.128 57.5519 211.799 53.7938C211.47 50.0358 212.652 46.922 215.345 44.4524C218.136 41.8755 221.739 40.587 226.156 40.587C230.141 40.587 233.457 41.5533 236.104 43.486C238.75 45.4188 240.229 48.1568 240.538 51.7001C240.914 55.995 239.814 59.4309 237.239 62.0079C234.654 64.4775 231.046 65.7122 226.414 65.7122ZM232.683 152.201C225.682 152.201 220.349 149.732 216.686 144.792C213.13 139.853 210.995 133.304 210.282 125.143C209.859 120.311 209.912 114.137 210.44 106.621C211.066 98.9979 212.062 91.9112 213.428 85.3615C214.097 81.9256 215.183 79.5633 216.686 78.2749C218.189 76.9864 220.718 76.3422 224.273 76.3422C229.767 76.3422 232.673 78.1675 232.992 81.8182C233.227 84.5025 232.748 90.7301 231.556 100.501C230.003 112.312 229.41 120.311 229.776 124.499C230.058 127.72 230.705 130.19 231.717 131.908C232.729 133.626 234.258 134.485 236.305 134.485C238.244 134.485 240.55 133.142 243.224 130.458C245.897 127.774 249.405 123.533 253.745 117.734C254.906 116.231 256.295 115.48 257.91 115.48C259.311 115.48 260.444 116.124 261.311 117.412C262.285 118.701 262.871 120.472 263.068 122.727C263.444 127.022 262.712 130.351 260.871 132.713C251.343 145.705 241.947 152.201 232.683 152.201Z" fill="var(--text-0)"/>
<path d="M264.045 152.201C259.951 152.201 256.855 150.054 254.756 145.759C252.765 141.464 251.356 134.592 250.53 125.143C249.309 111.185 250.143 97.9241 253.03 85.3615C253.727 82.2477 255.092 79.9929 257.124 78.597C259.255 77.0938 262.313 76.3422 266.299 76.3422C268.453 76.3422 269.985 76.6106 270.893 77.1475C271.802 77.6843 272.322 78.7044 272.454 80.2076C272.604 81.9256 272.134 85.791 271.044 91.8039C270.342 96.0988 269.809 99.8568 269.444 103.078C269.08 106.299 268.888 110.272 268.871 114.996C271.618 105.762 274.946 98.2462 278.856 92.4481C282.765 86.65 286.713 82.5161 290.698 80.0465C294.791 77.577 298.614 76.3422 302.169 76.3422C309.171 76.3422 312.977 79.8318 313.587 86.811C313.953 90.9986 313.43 98.5684 312.018 109.52C310.788 118.862 310.305 125.036 310.568 128.042C310.943 132.337 312.693 134.485 315.817 134.485C317.971 134.485 320.39 133.196 323.073 130.619C325.854 127.935 329.464 123.64 333.903 117.734C335.064 116.231 336.453 115.48 338.068 115.48C339.469 115.48 340.602 116.124 341.469 117.412C342.443 118.701 343.029 120.472 343.226 122.727C343.602 127.022 342.87 130.351 341.029 132.713C336.895 138.404 332.295 143.074 327.228 146.725C322.269 150.376 316.396 152.201 309.61 152.201C304.116 152.201 299.833 150.644 296.76 147.53C293.678 144.309 291.874 139.692 291.348 133.679C291.085 130.673 291.37 125.304 292.202 117.573C293.011 110.809 293.302 106.138 293.077 103.561C292.927 101.843 292.259 100.984 291.074 100.984C289.674 100.984 287.841 102.81 285.575 106.46C283.407 110.004 281.235 114.728 279.058 120.633C276.989 126.539 275.433 132.767 274.39 139.316C273.647 144.363 272.547 147.799 271.09 149.624C269.733 151.342 267.384 152.201 264.045 152.201Z" fill="var(--text-0)"/>
<path d="M401.584 115.48C402.984 115.48 404.118 116.124 404.985 117.412C405.959 118.701 406.545 120.472 406.742 122.727C407.117 127.022 406.385 130.351 404.545 132.713C400.411 138.404 395.756 143.074 390.582 146.725C385.407 150.376 379.265 152.201 372.156 152.201C350.181 152.201 337.847 136.793 335.152 105.977C334.739 101.253 334.483 96.4746 334.384 91.6428H328.082C324.85 91.6428 322.591 91.0523 321.302 89.8711C320.122 88.69 319.419 86.811 319.194 84.2341C318.668 78.2212 320.829 75.2148 325.676 75.2148H334.886C335.685 63.4037 337.542 52.6127 340.458 42.8418C343.373 33.0709 347.217 25.2863 351.988 19.4882C356.867 13.6901 362.377 10.791 368.517 10.791C373.041 10.791 376.769 12.7774 379.702 16.7502C382.635 20.723 384.364 25.7158 384.89 31.7287C386.345 48.3715 380.61 62.8669 367.687 75.2148H385.783C387.507 75.2148 388.779 75.5906 389.598 76.3422C390.418 77.0938 390.917 78.4896 391.095 80.5297C391.743 87.9384 385.981 91.6428 373.809 91.6428H354.096C354.35 97.0115 354.609 101.199 354.871 104.205C355.848 115.372 357.826 123.21 360.805 127.72C363.893 132.23 368.291 134.485 374 134.485C378.632 134.485 382.603 133.089 385.914 130.297C389.224 127.505 393.059 123.318 397.419 117.734C398.58 116.231 399.968 115.48 401.584 115.48ZM365.506 26.2527C363.89 26.2527 362.237 28.2928 360.548 32.3729C358.956 36.3457 357.559 41.9291 356.357 49.1231C355.253 56.2097 354.489 64.1017 354.064 72.7989C359.941 67.3228 364.145 61.2026 366.678 54.4381C369.309 47.5662 370.38 41.3386 369.892 35.7552C369.338 29.4202 367.876 26.2527 365.506 26.2527Z" fill="var(--text-0)"/>
<path d="M465.016 115.48C466.417 115.48 467.55 116.124 468.417 117.412C469.391 118.701 469.977 120.472 470.174 122.727C470.55 127.022 469.817 130.351 467.977 132.713C464.414 137.545 459.148 142.001 452.18 146.081C445.32 150.161 437.743 152.201 429.448 152.201C418.138 152.201 409.091 149.141 402.308 143.021C395.525 136.901 391.669 128.525 390.74 117.895C390.092 110.487 391.053 103.615 393.623 97.2799C396.183 90.8375 400.046 85.7373 405.211 81.9792C410.484 78.2212 416.621 76.3422 423.623 76.3422C429.871 76.3422 435.044 78.2212 439.143 81.9792C443.232 85.6299 445.554 90.6228 446.108 96.9578C446.756 104.367 444.621 110.755 439.705 116.124C434.886 121.385 426.258 125.573 413.819 128.686C416.944 133.626 422.277 136.095 429.817 136.095C434.665 136.095 440.013 134.431 445.862 131.102C451.809 127.666 456.805 123.21 460.851 117.734C462.012 116.231 463.4 115.48 465.016 115.48ZM422.256 92.126C418.271 92.126 415.08 94.4345 412.683 99.0515C410.393 103.669 409.535 109.252 410.108 115.802L410.136 116.124C416.36 114.621 421.172 112.366 424.571 109.359C427.971 106.353 429.497 102.863 429.149 98.8905C428.971 96.8504 428.238 95.2398 426.95 94.0587C425.76 92.7702 424.195 92.126 422.256 92.126Z" fill="var(--text-0)"/>
<path d="M471.067 152.201C466.974 152.201 463.878 150.054 461.779 145.759C459.787 141.464 458.379 134.592 457.552 125.143C456.332 111.185 457.165 97.9241 460.053 85.3615C460.75 82.2477 462.114 79.9929 464.147 78.597C466.277 77.0938 469.336 76.3422 473.321 76.3422C475.476 76.3422 477.007 76.6106 477.916 77.1475C478.825 77.6843 479.345 78.7044 479.476 80.2076C479.626 81.9256 479.156 85.791 478.066 91.8039C477.365 96.0988 476.831 99.8568 476.467 103.078C476.102 106.299 475.911 110.272 475.893 114.996C478.64 105.762 481.969 98.2462 485.878 92.4481C489.788 86.65 493.735 82.5161 497.72 80.0465C501.813 77.577 505.637 76.3422 509.192 76.3422C516.193 76.3422 519.999 79.8318 520.61 86.811C520.732 88.2069 520.543 91.5891 520.043 96.9578C519.556 101.253 519.36 103.937 519.454 105.011C519.783 108.769 521.293 110.648 523.986 110.648C527.003 110.648 530.674 108.286 535 103.561C536.279 102.165 537.672 101.467 539.18 101.467C540.58 101.467 541.714 102.112 542.581 103.4C543.546 104.581 544.117 106.192 544.296 108.232C544.643 112.205 543.838 115.319 541.881 117.573C539.137 120.687 535.817 123.372 531.921 125.626C528.123 127.774 523.962 128.848 519.438 128.848C513.729 128.848 509.239 127.398 505.97 124.499C502.808 121.6 501.011 117.681 500.579 112.742C500.438 111.131 500.459 109.52 500.641 107.91C500.669 105.762 500.65 104.313 500.584 103.561C500.434 101.843 499.766 100.984 498.582 100.984C496.966 100.984 494.971 102.81 492.597 106.46C490.322 110.004 488.15 114.728 486.081 120.633C484.012 126.539 482.456 132.767 481.413 139.316C480.669 144.363 479.569 147.799 478.113 149.624C476.755 151.342 474.407 152.201 471.067 152.201Z" fill="var(--text-0)"/>
<path d="M544.598 152.201C540.505 152.201 537.409 150.054 535.31 145.759C533.318 141.464 531.909 134.592 531.083 125.143C529.863 111.185 530.696 97.9241 533.583 85.3615C534.281 82.2477 535.645 79.9929 537.678 78.597C539.808 77.0938 542.866 76.3422 546.852 76.3422C549.006 76.3422 550.538 76.6106 551.447 77.1475C552.355 77.6843 552.875 78.7044 553.007 80.2076C553.157 81.9256 552.687 85.791 551.597 91.8039C550.895 96.0988 550.362 99.8568 549.998 103.078C549.633 106.299 549.442 110.272 549.424 114.996C552.171 105.762 555.5 98.2462 559.409 92.4481C563.319 86.65 567.266 82.5161 571.251 80.0465C575.344 77.577 579.168 76.3422 582.722 76.3422C589.724 76.3422 593.53 79.8318 594.14 86.811C594.263 88.2069 594.074 91.5891 593.573 96.9578C593.087 101.253 592.891 103.937 592.985 105.011C593.314 108.769 594.824 110.648 597.517 110.648C600.533 110.648 604.205 108.286 608.531 103.561C609.81 102.165 611.203 101.467 612.711 101.467C614.111 101.467 615.245 102.112 616.111 103.4C617.076 104.581 617.648 106.192 617.827 108.232C618.174 112.205 617.369 115.319 615.412 117.573C612.668 120.687 609.348 123.372 605.452 125.626C601.654 127.774 597.493 128.848 592.969 128.848C587.26 128.848 582.77 127.398 579.501 124.499C576.339 121.6 574.542 117.681 574.11 112.742C573.969 111.131 573.99 109.52 574.172 107.91C574.2 105.762 574.181 104.313 574.115 103.561C573.965 101.843 573.297 100.984 572.112 100.984C570.497 100.984 568.502 102.81 566.128 106.46C563.853 110.004 561.68 114.728 559.612 120.633C557.543 126.539 555.987 132.767 554.944 139.316C554.2 144.363 553.1 147.799 551.644 149.624C550.286 151.342 547.937 152.201 544.598 152.201Z" fill="var(--text-0)"/>
<path d="M623.138 152.201C618.291 152.201 614.112 150 610.604 145.598C607.193 141.088 605.197 135.505 604.615 128.848C603.911 120.795 603.806 113.44 604.301 106.782C604.787 100.018 605.94 92.8776 607.761 85.3615C608.556 82.1403 609.862 79.8318 611.679 78.4359C613.496 77.0401 616.505 76.3422 620.706 76.3422C623.076 76.3422 624.725 76.718 625.652 77.4696C626.687 78.2212 627.271 79.3486 627.402 80.8518C627.477 81.7108 627.138 84.6099 626.385 89.549C625.655 93.5218 625.108 97.1188 624.743 100.34C623.575 111.614 623.155 119.13 623.483 122.888C623.68 125.143 624.091 126.754 624.714 127.72C625.327 128.579 626.227 129.009 627.412 129.009C629.027 129.009 630.879 127.398 632.967 124.177C635.163 120.956 637.322 116.07 639.442 109.52C641.67 102.971 643.659 94.9177 645.408 85.3615C645.988 82.1403 647.079 79.8318 648.681 78.4359C650.39 77.0401 653.022 76.3422 656.577 76.3422C659.054 76.3422 660.806 76.6643 661.832 77.3085C662.848 77.8454 663.427 78.9191 663.567 80.5297C663.802 83.214 663.099 90.5691 661.457 102.595C659.643 116.339 658.876 124.821 659.158 128.042C659.336 130.082 659.908 131.693 660.873 132.874C661.829 133.948 663.007 134.485 664.407 134.485C666.562 134.485 668.98 133.196 671.663 130.619C674.445 127.935 678.055 123.64 682.494 117.734C683.655 116.231 685.043 115.48 686.659 115.48C688.059 115.48 689.193 116.124 690.06 117.412C691.034 118.701 691.62 120.472 691.817 122.727C692.192 127.022 691.46 130.351 689.62 132.713C685.486 138.404 680.885 143.074 675.818 146.725C670.859 150.376 664.987 152.201 658.2 152.201C653.03 152.201 649.032 150.215 646.207 146.242C643.49 142.269 641.817 136.686 641.188 129.492C639.995 136.793 637.741 142.43 634.426 146.403C631.102 150.268 627.339 152.201 623.138 152.201Z" fill="var(--text-0)"/>
<path d="M764.364 115.48C765.765 115.48 766.898 116.124 767.765 117.412C768.739 118.701 769.325 120.472 769.522 122.727C769.898 127.022 769.166 130.351 767.325 132.713C763.191 138.404 758.591 143.074 753.524 146.725C748.565 150.376 742.692 152.201 735.906 152.201C730.197 152.201 725.386 150.161 721.475 146.081C715.682 150.054 709.451 152.094 702.782 152.201C703.194 172.924 701.528 190.211 697.784 204.062C694.049 218.021 687.388 225 677.801 225C671.984 225 667.493 222.906 664.326 218.719C661.159 214.531 659.252 208.733 658.604 201.324C657.684 190.802 659.032 178.508 662.65 164.442C666.277 150.483 672.416 135.075 681.068 118.218C679.697 102.541 678.636 91.6428 677.886 85.5226C677.506 82.4087 678.529 79.9392 680.954 78.1138C683.38 76.2885 686.532 75.3758 690.41 75.3758C692.672 75.3758 694.33 75.859 695.384 76.8253C696.536 77.6843 697.283 79.456 697.626 82.1403C697.861 84.8246 698.088 86.811 698.308 88.0995C701.38 83.8046 704.506 80.7445 707.685 78.9191C710.855 76.9864 714.326 76.02 718.096 76.02C724.128 76.02 729.241 78.4359 733.433 83.2677C737.734 88.0995 740.227 94.4345 740.912 102.273C741.409 107.963 740.977 113.493 739.615 118.862C738.254 124.23 736.149 129.116 733.303 133.518C735.621 134.163 737.534 134.485 739.043 134.485C742.597 134.485 745.878 133.196 748.884 130.619C751.89 128.042 755.662 123.747 760.199 117.734C761.36 116.231 762.749 115.48 764.364 115.48ZM702.238 136.739C706.041 135.88 709.413 133.787 712.353 130.458C715.392 127.022 717.665 122.835 719.172 117.895C720.67 112.849 721.179 107.588 720.7 102.112C720.419 98.8905 719.561 96.4746 718.128 94.864C716.685 93.146 714.886 92.287 712.732 92.287C708.854 92.287 704.525 96.3672 699.745 104.528C700.05 109.252 700.602 116.178 701.4 125.304C701.832 130.243 702.111 134.055 702.238 136.739ZM677.714 209.216C680.622 209.216 682.492 202.881 683.323 190.211C684.164 177.649 684.032 161.972 682.927 143.182C679.234 153.919 676.468 164.173 674.63 173.944C672.791 183.715 672.163 191.929 672.745 198.586C673.045 202.022 673.706 204.653 674.728 206.478C675.641 208.304 676.637 209.216 677.714 209.216Z" fill="var(--text-0)"/>
<path d="M827.937 115.48C829.337 115.48 830.471 116.124 831.337 117.412C832.312 118.701 832.897 120.472 833.095 122.727C833.47 127.022 832.738 130.351 830.898 132.713C826.763 138.404 822.109 143.074 816.935 146.725C811.76 150.376 805.618 152.201 798.509 152.201C776.534 152.201 764.199 136.793 761.505 105.977C761.092 101.253 760.836 96.4746 760.736 91.6428H754.435C751.203 91.6428 748.943 91.0523 747.655 89.8711C746.475 88.69 745.772 86.811 745.547 84.2341C745.021 78.2212 747.182 75.2148 752.029 75.2148H761.239C762.037 63.4037 763.895 52.6127 766.81 42.8418C769.726 33.0709 773.57 25.2863 778.341 19.4882C783.22 13.6901 788.729 10.791 794.869 10.791C799.394 10.791 803.122 12.7774 806.055 16.7502C808.987 20.723 810.717 25.7158 811.242 31.7287C812.697 48.3715 806.963 62.8669 794.039 75.2148H812.136C813.86 75.2148 815.131 75.5906 815.951 76.3422C816.771 77.0938 817.27 78.4896 817.448 80.5297C818.096 87.9384 812.334 91.6428 800.161 91.6428H780.449C780.703 97.0115 780.961 101.199 781.224 104.205C782.201 115.372 784.179 123.21 787.158 127.72C790.245 132.23 794.644 134.485 800.353 134.485C804.985 134.485 808.956 133.089 812.267 130.297C815.577 127.505 819.412 123.318 823.771 117.734C824.932 116.231 826.321 115.48 827.937 115.48ZM791.859 26.2527C790.243 26.2527 788.59 28.2928 786.9 32.3729C785.309 36.3457 783.912 41.9291 782.71 49.1231C781.606 56.2097 780.842 64.1017 780.417 72.7989C786.294 67.3228 790.498 61.2026 793.031 54.4381C795.661 47.5662 796.733 41.3386 796.244 35.7552C795.69 29.4202 794.229 26.2527 791.859 26.2527Z" fill="var(--text-0)"/>
<path d="M891.369 115.48C892.769 115.48 893.903 116.124 894.769 117.412C895.744 118.701 896.33 120.472 896.527 122.727C896.902 127.022 896.17 130.351 894.33 132.713C890.767 137.545 885.501 142.001 878.533 146.081C871.673 150.161 864.095 152.201 855.801 152.201C844.49 152.201 835.444 149.141 828.661 143.021C821.878 136.901 818.022 128.525 817.092 117.895C816.445 110.487 817.406 103.615 819.976 97.2799C822.536 90.8375 826.399 85.7373 831.564 81.9792C836.837 78.2212 842.974 76.3422 849.976 76.3422C856.224 76.3422 861.397 78.2212 865.496 81.9792C869.585 85.6299 871.907 90.6228 872.461 96.9578C873.108 104.367 870.974 110.755 866.057 116.124C861.239 121.385 852.611 125.573 840.172 128.686C843.297 133.626 848.63 136.095 856.17 136.095C861.017 136.095 866.365 134.431 872.214 131.102C878.162 127.666 883.158 123.21 887.203 117.734C888.365 116.231 889.753 115.48 891.369 115.48ZM848.609 92.126C844.624 92.126 841.432 94.4345 839.035 99.0515C836.746 103.669 835.888 109.252 836.46 115.802L836.489 116.124C842.713 114.621 847.524 112.366 850.924 109.359C854.323 106.353 855.85 102.863 855.502 98.8905C855.324 96.8504 854.591 95.2398 853.302 94.0587C852.112 92.7702 850.548 92.126 848.609 92.126Z" fill="var(--text-0)"/>
<path d="M940.763 115.48C942.718 124.284 945.201 132.981 948.215 141.571C948.768 142.967 949.11 144.417 949.241 145.92C949.664 150.752 946.913 153.168 940.988 153.168C937.649 153.168 934.984 152.255 932.993 150.43C931.11 148.604 929.194 145.168 927.244 140.122L927.026 139.477C923.374 144.524 919.954 147.906 916.765 149.624C913.683 151.342 909.988 152.201 905.679 152.201C899.109 152.201 893.458 149.785 888.726 144.953C884.093 140.014 881.434 133.626 880.749 125.787C879.998 117.198 881.134 109.252 884.158 101.951C887.182 94.6492 891.67 88.69 897.622 84.073C903.564 79.3486 910.425 76.5032 918.204 75.5369C918.476 55.2434 920.81 37.5805 925.204 22.5483C929.707 7.51611 936.752 0 946.339 0C950.971 0 954.978 2.09377 958.36 6.28132C961.85 10.4689 963.966 16.8039 964.708 25.2863C965.74 37.0974 964.038 50.8948 959.601 66.6786C955.165 82.4624 948.885 98.7294 940.763 115.48ZM945.941 15.7838C942.818 15.7838 940.55 23.7294 939.139 39.6206C937.835 55.5118 937.516 72.7989 938.18 91.4818C947.883 65.7122 952.031 44.7745 950.623 28.6686C950.266 24.5884 949.612 21.4209 948.661 19.1661C947.817 16.9112 946.911 15.7838 945.941 15.7838ZM909.912 135.934C912.067 135.934 914.043 135.129 915.841 133.518C917.747 131.908 920.06 128.794 922.78 124.177C921.018 116.339 919.77 108.232 919.038 99.8568C918.747 96.5283 918.575 93.9513 918.523 92.126C912.749 93.8439 908.191 97.7631 904.848 103.883C901.505 110.004 900.158 116.768 900.805 124.177C901.491 132.015 904.526 135.934 909.912 135.934Z" fill="var(--text-0)"/>
<path d="M85.6538 1.02402C75.836 3.3689 68.1103 8.64063 64.1079 11.1369C49.1507 21.0543 38.3992 33.3225 25.7522 47.828C9.12839 66.8963 -2.91752 89.0189 0.619159 103.904C2.81634 113.152 16.299 120.118 27.917 117.343C34.2691 115.826 44.1515 113.299 47.6913 110.891C48.1989 110.545 48.7947 111.189 48.4156 111.676C31.9844 132.791 23.3998 152.549 25.7522 166.136C27.038 173.563 29.9261 176.705 40.8624 174.093C61.473 169.17 86.7381 148.882 107.573 125.741C119.797 112.166 121.685 98.83 119.537 89.7926C114.889 70.2278 101.075 68.8654 89.3053 71.6765C77.7151 74.4447 60.6723 79.1879 38.5653 95.9754C38.039 96.3752 37.3971 95.6609 37.8455 95.171C54.3074 77.2468 79.1272 65.7441 100.103 63.3777C102.011 63.1622 103.766 62.247 105.12 60.8794C120.196 45.626 126.291 31.4057 123.233 18.5312C119.205 1.57954 98.9032 -2.14044 85.6538 1.02402Z" fill="var(--primary)"/>
</svg>
