<svg viewBox="0 0 135 180" fill="none" xmlns="http://www.w3.org/2000/svg">
<path d="M88.7475 10.9361C79.7214 13.0799 72.6188 17.8998 68.9391 20.1822C55.1882 29.2494 45.3037 40.4661 33.6766 53.7282C18.3934 71.1621 7.31898 91.3885 10.5704 104.998C12.5904 113.453 24.9857 119.822 35.6669 117.285C41.5067 115.898 50.5921 113.588 53.8464 111.386C54.3131 111.07 54.8609 111.658 54.5123 112.104C39.4063 131.409 31.5139 149.474 33.6766 161.896C34.8588 168.686 37.5139 171.558 47.5683 169.17C66.5168 164.67 89.7444 146.121 108.899 124.963C120.137 112.551 121.873 100.359 119.899 92.0959C115.625 74.2081 102.925 72.9624 92.1045 75.5326C81.4489 78.0635 65.7806 82.4002 45.4564 97.7487C44.9725 98.1143 44.3824 97.4612 44.7947 97.0133C59.929 80.6255 82.7472 70.1087 102.032 67.9452C103.786 67.7481 105.399 66.9113 106.644 65.6609C120.504 51.715 126.108 38.7136 123.296 26.9426C119.593 11.444 100.928 8.04285 88.7475 10.9361Z" fill="var(--logo-color)"/>
<path d="M86.4367 1.20686C94.2299 -0.644152 103.952 -0.516621 112.627 2.64729C121.545 5.89984 130.194 12.7819 133.022 24.619C136.756 40.2505 129.641 55.4965 116.869 69.4285C123.065 73.6815 127.423 80.5552 129.625 89.7723C132.407 101.414 129.598 116.617 116.922 130.991L116.312 131.675C106.391 142.633 95.3158 153.031 84.1154 161.344C73.0444 169.56 61.2342 176.202 49.8791 178.899C44.4753 180.183 37.7741 180.999 32.0676 177.5C26.0209 173.792 24.4796 167.374 23.8244 163.611C22.2782 154.73 24.4513 145.034 28.4104 135.682C29.5036 133.1 30.7623 130.474 32.175 127.816C26.1799 128.081 20.3182 126.655 15.4162 124.216C9.12748 121.086 2.77496 115.404 0.843959 107.321C-1.57754 97.1849 1.52711 86.1553 6.1506 76.4842C10.9232 66.5012 18.0997 56.3272 26.1574 47.1356C37.6703 34.0037 48.3874 21.7554 63.4338 11.8338L63.55 11.7576L63.6682 11.6844C66.9894 9.62438 75.5256 3.79847 86.4367 1.20686ZM123.296 26.9422C119.593 11.4438 100.928 8.04315 88.7473 10.9363L87.9065 11.1444C79.2805 13.3784 72.5033 17.9715 68.9387 20.1824C55.188 29.2496 45.3039 40.4664 33.677 53.7283C18.3938 71.1622 7.31906 91.3885 10.5705 104.998C12.559 113.321 24.6011 119.622 35.1652 117.397L35.6672 117.285C41.4273 115.917 50.343 113.648 53.7082 111.473L53.8469 111.386C54.3135 111.07 54.8604 111.658 54.5119 112.103C39.4059 131.409 31.5142 149.474 33.677 161.896C34.8222 168.474 37.3494 171.375 46.6467 169.379L47.5686 169.171C66.517 164.67 89.7444 146.12 108.899 124.963C119.786 112.939 121.755 101.121 120.072 92.8817L119.899 92.0955C115.625 74.2081 102.925 72.9629 92.1047 75.533C81.4491 78.0639 65.7804 82.4003 45.4563 97.7488C44.9725 98.1141 44.3826 97.4614 44.7942 97.0135C59.9283 80.6258 82.7469 70.1088 102.031 67.9451C103.785 67.7481 105.399 66.9113 106.644 65.661C120.288 51.9328 125.931 39.1199 123.421 27.4949L123.296 26.9422Z" fill="var(--token-neutral-5)"/>
</svg>
