<svg viewBox="0 0 122 180" fill="none" xmlns="http://www.w3.org/2000/svg">
<path d="M60.7461 14.0695C53.0834 18.2008 47.8159 24.2908 45.0347 27.2513C34.7723 38.8024 28.5389 51.3639 21.2231 66.2016C11.6072 85.7063 6.48709 106.721 12.7469 118.266C16.6359 125.438 29.4251 128.205 38.4929 123.316C43.4507 120.643 51.1268 116.347 53.5419 113.562C53.8882 113.163 54.5281 113.563 54.3204 114.051C45.3205 135.209 42.5597 153.494 47.5435 164.227C50.2676 170.093 53.3741 172.053 61.9098 167.451C77.9963 158.778 94.81 138.554 107.03 114.736C114.2 100.763 112.542 87.0757 108.741 80.0663C101.583 68.9639 88.724 68.1255 79.5377 73.0782C70.4916 77.9554 57.3102 84.4012 42.616 103.238C42.2661 103.687 41.5721 103.238 41.8369 102.732C51.5723 84.2116 69.7038 69.1485 86.6637 62.5121C88.2061 61.9083 89.4654 60.7588 90.2897 59.3239C99.4645 43.325 101.382 30.184 95.9677 20.1986C88.8388 7.05101 71.0872 8.49416 60.7461 14.0695Z" fill="url(#paint0_linear_5905_40)"/>
<path d="M56.0005 5.26689C62.7121 1.64848 71.6777 -0.623709 80.4429 0.151656C89.4642 0.949743 99.192 5.1662 104.758 15.4319C112.259 29.2658 109.118 45.4604 100.443 61.6321C106.527 63.5342 112.251 67.4382 116.641 73.887L117.146 74.6478L117.351 74.9661L117.532 75.3001C122.909 85.2176 124.469 102.025 116.322 118.516L115.927 119.301C103.289 143.934 85.2968 166.203 66.6558 176.253C62.0453 178.739 55.9748 181.213 49.7027 179.352C43.0495 177.378 39.9935 171.712 38.4732 168.438C34.8397 160.612 34.4611 151.162 35.7838 141.668C36.1043 139.367 36.5333 137.007 37.064 134.594C31.8868 136.036 26.5055 136.091 21.69 135.115C15.1219 133.782 7.78811 130.101 3.95563 123.033C-0.807264 114.248 -0.647982 103.327 1.20075 93.3899C3.11256 83.114 7.16613 72.0987 12.2535 61.7796H12.2545C19.4938 47.0971 26.265 33.3222 37.5591 20.6097L37.6509 20.5061L37.7466 20.4046C40.2391 17.7514 46.6317 10.318 56.0005 5.26689ZM95.9673 20.1985C88.8384 7.05113 71.0867 8.49435 60.7457 14.0696L60.0347 14.4622C52.7566 18.5782 47.729 24.3833 45.0347 27.2513L44.0845 28.3372C34.3819 39.5897 28.3104 51.8275 21.2232 66.2015L20.3345 68.0345C11.2981 87.0105 6.68268 107.082 12.7466 118.266C16.6356 125.438 29.4249 128.205 38.4927 123.316C43.4505 120.643 51.1265 116.346 53.5416 113.562C53.8879 113.163 54.5274 113.563 54.3199 114.051C45.32 135.209 42.5597 153.494 47.5435 164.227C50.2676 170.093 53.3741 172.052 61.9097 167.45C77.9961 158.778 94.8099 138.554 107.03 114.736C113.976 101.199 112.636 87.931 109.09 80.7425L108.741 80.0667C101.583 68.9643 88.7239 68.1257 79.5377 73.0784C70.4915 77.9556 57.3099 84.4015 42.6158 103.239C42.266 103.687 41.5725 103.238 41.8365 102.733C51.5719 84.2121 69.7038 69.1484 86.6636 62.512C88.206 61.9082 89.4653 60.7584 90.2896 59.3235C99.4643 43.3247 101.382 30.1839 95.9673 20.1985Z" fill="#101419"/>
<defs>
<linearGradient id="paint0_linear_5905_40" x1="60.9996" y1="10.0003" x2="60.9996" y2="170" gradientUnits="userSpaceOnUse">
<stop stop-color="var(--token-orange-1)"/>
<stop offset="1" stop-color="var(--token-orange-2)"/>
</linearGradient>
</defs>
</svg>
