<svg viewBox="0 0 440 340" fill="none" xmlns="http://www.w3.org/2000/svg">
<path d="M200 50C200 44.4772 195.523 40 190 40H50C44.4772 40 40 44.4772 40 50V190C40 195.523 44.4772 200 50 200H136.779C140.65 200 144.174 197.765 145.825 194.263L199.046 81.3155C199.674 79.9823 200 78.5268 200 77.053V50ZM240 79.291C240 85.1862 238.696 91.009 236.184 96.3418L179.305 217.051C172.703 231.06 158.608 240 143.121 240H40C17.9086 240 0 222.091 0 200V40C2.0619e-06 17.9086 17.9086 0 40 0H200C222.091 0 240 17.9086 240 40V79.291Z" fill="var(--text-0)"/>
<path d="M400 100C422.091 100 440 117.909 440 140V300C440 322.091 422.091 340 400 340H240C217.909 340 200 322.091 200 300V245.715C200 239.82 201.303 233.998 203.815 228.665L253.629 122.95C260.23 108.94 274.326 100 289.813 100H400ZM240 290C240 295.523 244.477 300 250 300H390C395.523 300 400 295.523 400 290V150C400 144.477 395.523 140 390 140H296.156C292.284 140 288.76 142.235 287.11 145.737L240.954 243.69C240.326 245.024 240 246.479 240 247.953V290Z" fill="var(--primary)"/>
</svg>
