<svg viewBox="0 0 238 350" fill="none" xmlns="http://www.w3.org/2000/svg">
<path d="M118.116 27.3569C103.216 35.3899 92.9739 47.2315 87.5662 52.9879C67.6119 75.448 55.4915 99.8729 41.2665 128.723C22.5693 166.649 12.6136 207.511 24.7853 229.959C32.3471 243.905 57.2147 249.284 74.8463 239.778C84.4862 234.58 99.4119 226.227 104.108 220.812C104.781 220.036 106.025 220.815 105.621 221.763C88.122 262.903 82.7539 298.455 92.4444 319.325C97.7411 330.732 103.782 334.542 120.379 325.594C151.657 308.73 184.35 269.406 208.111 223.094C222.053 195.926 218.828 169.311 211.438 155.682C197.521 134.095 172.516 132.464 154.654 142.095C137.065 151.578 111.435 164.111 82.8632 200.738C82.183 201.611 80.8335 200.738 81.3485 199.754C100.278 163.742 135.533 134.453 168.51 121.55C171.509 120.376 173.958 118.14 175.561 115.35C193.4 84.2418 197.129 58.6903 186.601 39.2745C172.74 13.7101 138.223 16.5162 118.116 27.3569Z" fill="url(#paint0_linear_5905_40)"/>
<path d="M108.888 10.241C121.938 3.20532 139.371 -1.21275 156.415 0.294883C173.956 1.8467 192.871 10.0452 203.694 30.0061C218.279 56.9049 212.171 88.3939 195.303 119.839C207.134 123.537 218.263 131.128 226.799 143.667L227.781 145.146L228.18 145.765L228.531 146.415C238.986 165.698 242.019 198.378 226.178 230.444L225.411 231.971C200.838 279.867 165.852 323.168 129.607 342.71C120.642 347.543 108.838 352.353 96.6428 348.735C83.7061 344.897 77.7641 333.88 74.808 327.513C67.743 312.297 67.0067 293.922 69.5785 275.462C70.2018 270.988 71.036 266.398 72.0679 261.707C62.0012 264.51 51.5378 264.618 42.1744 262.719C29.4032 260.129 15.1433 252.97 7.69139 239.227C-1.56966 222.146 -1.25995 200.911 2.33475 181.589C6.05211 161.608 13.9339 140.19 23.8259 120.125H23.8278C37.904 91.5764 51.07 64.7922 73.0306 40.0738L73.2091 39.8725L73.3952 39.675C78.2417 34.5161 90.6714 20.0626 108.888 10.241ZM186.601 39.2744C172.739 13.7103 138.222 16.5166 118.115 27.3572L116.733 28.1206C102.581 36.1237 92.8051 47.4112 87.5663 52.9878L85.7187 55.0993C66.8528 76.9789 55.0472 100.774 41.2668 128.723L39.5388 132.287C21.9681 169.185 12.9939 208.212 24.7848 229.958C32.3465 243.904 57.2143 249.283 74.8459 239.777C84.4859 234.58 99.4113 226.226 104.107 220.812C104.78 220.035 106.024 220.814 105.62 221.763C88.121 262.903 82.7539 298.456 92.4444 319.325C97.7411 330.732 103.781 334.542 120.378 325.594C151.657 308.73 184.35 269.406 208.111 223.094C221.617 196.774 219.012 170.975 212.117 156.997L211.437 155.683C197.52 134.095 172.516 132.465 154.654 142.095C137.065 151.578 111.434 164.112 82.8628 200.739C82.1828 201.61 80.8343 200.738 81.3476 199.755C100.277 163.743 135.533 134.453 168.51 121.549C171.509 120.375 173.958 118.14 175.561 115.35C193.4 84.2413 197.128 58.6901 186.601 39.2744Z" fill="var(--token-neutral-5)"/>
<defs>
<linearGradient id="paint0_linear_5905_40" x1="118.609" y1="19.4447" x2="118.609" y2="330.551" gradientUnits="userSpaceOnUse">
<stop stop-color="var(--logo-color-start)"/>
<stop offset="1" stop-color="var(--logo-color-end)"/>
</linearGradient>
</defs>
</svg>
