<svg viewBox="0 0 352 352" fill="none" xmlns="http://www.w3.org/2000/svg">
<path fill-rule="evenodd" clip-rule="evenodd" d="M261.956 103.059C274.589 86.2156 296.582 79.3454 316.556 86.0032C336.53 92.6612 350.003 111.353 350.003 132.408V258.911C350.003 279.966 336.53 298.659 316.556 305.317L190.052 347.484C169.754 354.25 147.414 347.038 134.903 329.68C122.392 312.322 122.615 288.848 135.452 271.731L261.956 103.059ZM304.289 122.807C300.156 121.43 295.606 122.851 292.992 126.336L166.489 295.008C163.833 298.549 163.786 303.406 166.374 306.997C168.963 310.588 173.585 312.081 177.785 310.681L304.289 268.513C308.421 267.135 311.209 263.267 311.209 258.911V132.408C311.208 128.052 308.421 124.185 304.289 122.807Z" fill="var(--primary)"/>
<path fill-rule="evenodd" clip-rule="evenodd" d="M159.951 2.5134C180.249 -4.25257 202.589 2.96009 215.1 20.3178C227.61 37.6756 227.388 61.1502 214.551 78.2674L88.0469 246.939C75.4143 263.782 53.4206 270.652 33.4469 263.995C13.4731 257.337 0.00029097 238.644 0 217.59V91.0866C0 70.0322 13.473 51.3393 33.4469 44.6813L159.951 2.5134ZM183.629 43.0012C181.04 39.4099 176.418 37.9173 172.218 39.3172L45.7143 81.4851C41.5819 82.8627 38.7945 86.7306 38.7945 91.0866V217.59C38.7948 221.946 41.5821 225.813 45.7143 227.191C49.8467 228.568 54.397 227.146 57.0107 223.662L183.514 54.9902C186.17 51.4489 186.217 46.5924 183.629 43.0012Z" fill="var(--text-0)"/>
</svg>
