<svg viewBox="0 0 116 175" fill="none" xmlns="http://www.w3.org/2000/svg">
<path d="M84.5149 0.941918C75.1979 3.162 67.3684 7.50477 63.5701 9.86823C49.376 19.2578 36.4404 35.6694 24.4385 49.4029C8.66273 67.4565 -2.76869 88.4018 0.587574 102.495C2.67267 111.25 10.029 117.345 21.0544 114.718C27.0824 113.281 32.7994 109.882 36.1587 107.601C36.6404 107.274 37.2058 107.884 36.846 108.345C21.253 128.336 11.2601 147.309 14.6487 161.538C17.5381 173.671 27.612 176.718 38.327 174.164C57.8863 169.504 80.3815 145.796 100.153 123.886C111.754 111.033 113.545 98.4071 111.508 89.8506C107.096 71.3271 90.4806 68.82 79.3111 71.4815C68.3121 74.1024 52.1387 78.5932 31.1595 94.4873C30.66 94.8658 30.0508 94.1896 30.4764 93.7257C46.0985 76.7554 69.6522 65.8648 89.5584 63.6244C91.3688 63.4204 93.0342 62.5538 94.3189 61.259C108.626 46.8174 118.391 29.956 115.488 17.7666C111.666 1.71711 97.0884 -2.05414 84.5149 0.941918Z" fill="var(--primary)"/>
</svg>
