<svg viewBox="0 0 391 415" fill="none" xmlns="http://www.w3.org/2000/svg">
<path fill-rule="evenodd" clip-rule="evenodd" d="M286.6 122.203C301.579 102.232 327.657 94.0852 351.341 101.98C375.025 109.874 391 132.038 391 157.003V307.003C391 331.968 375.025 354.133 351.341 362.027L201.341 412.027C177.272 420.05 150.783 411.498 135.948 390.916C121.114 370.334 121.377 342.5 136.6 322.203L286.6 122.203ZM336.795 145.619C331.895 143.986 326.5 145.672 323.401 149.804L173.401 349.804C170.251 354.003 170.196 359.761 173.265 364.02C176.334 368.278 181.815 370.048 186.795 368.388L336.795 318.388C341.695 316.754 345 312.168 345 307.003V157.003C345 151.838 341.695 147.253 336.795 145.619Z" fill="var(--primary)"/>
<path fill-rule="evenodd" clip-rule="evenodd" d="M189.659 2.98023C213.728 -5.04243 240.217 3.50988 255.052 24.0916C269.886 44.6733 269.623 72.508 254.4 92.8045L104.4 292.804C89.4215 312.776 63.3428 320.922 39.6592 313.028C15.9756 305.134 0.000345014 282.969 0 258.005V108.005C0 83.0397 15.9754 60.8749 39.6592 52.9802L189.659 2.98023ZM217.735 50.988C214.666 46.7297 209.185 44.96 204.205 46.6199L54.2051 96.6199C49.3051 98.2533 46 102.84 46 108.005V258.005C46.0004 263.169 49.3054 267.755 54.2051 269.388C59.105 271.022 64.5005 269.336 67.5996 265.204L217.6 65.2039C220.749 61.0048 220.804 55.2462 217.735 50.988Z" fill="var(--text-0)"/>
</svg>
