<svg viewBox="0 0 128 148" fill="none" xmlns="http://www.w3.org/2000/svg">
<path d="M92.5103 41.5688C94.79 36.7251 100.566 34.6534 105.408 36.9135C110.257 39.1785 112.364 44.9468 110.081 49.8002L66.4947 142.429C64.2149 147.274 58.4366 149.346 53.5943 147.085C48.7444 144.821 46.6388 139.052 48.9224 134.199L92.5103 41.5688Z" fill="var(--primary)"/>
<path d="M60.5092 5.47002C62.7889 0.712851 68.5643 -1.32179 73.4061 0.897911C78.2556 3.12246 80.3621 8.7877 78.0788 13.5544L34.4947 104.529C32.2151 109.287 26.437 111.322 21.5949 109.102C16.7452 106.877 14.6397 101.212 16.9232 96.4452L60.5092 5.47002Z" fill="var(--text-0)"/>
<path d="M9.5 54.9998C4.2533 54.9998 3.71834e-07 50.7465 8.30515e-07 45.4998C1.2892e-06 40.253 4.2533 35.9998 9.5 35.9998L46.5 35.9998C51.7467 35.9998 56 40.2531 56 45.4998C56 50.7465 51.7467 54.9998 46.5 54.9998L9.5 54.9998Z" fill="var(--text-0)"/>
<path d="M81.5 110C76.2533 110 72 105.746 72 100.5C72 95.253 76.2533 90.9998 81.5 90.9998L118.5 90.9998C123.747 90.9998 128 95.2531 128 100.5C128 105.746 123.747 110 118.5 110L81.5 110Z" fill="var(--primary)"/>
</svg>
