<svg viewBox="0 0 400 300" fill="none" xmlns="http://www.w3.org/2000/svg">
<path d="M200 59.2915C200 62.2391 199.348 65.1503 198.092 67.8167L141.213 188.525C137.912 195.53 130.864 200 123.121 200H20C8.9543 200 0 191.046 0 180V20C0 8.95431 8.95431 0 20 0H180C191.046 0 200 8.95431 200 20V59.2915Z" fill="var(--text-0)"/>
<path d="M400 280C400 291.046 391.046 300 380 300H220C208.954 300 200 291.046 200 280V225.715C200 222.768 200.652 219.857 201.908 217.19L251.721 111.475C255.022 104.47 262.069 100 269.813 100H380C391.046 100 400 108.954 400 120V280Z" fill="var(--primary)"/>
</svg>
