<svg viewBox="0 0 24 35" fill="none" xmlns="http://www.w3.org/2000/svg">
<path d="M11.8116 2.73567C10.3216 3.53898 9.2974 4.72313 8.75662 5.29877C6.76119 7.54479 5.54915 9.98727 4.12666 12.8723C2.25693 16.6649 1.26136 20.751 2.47853 22.9958C3.23471 24.3904 5.72147 24.9284 7.48463 23.9778C8.44863 23.458 9.94119 22.6227 10.4108 22.0812C10.4781 22.0036 10.6025 22.0814 10.5621 22.1763C8.8122 26.2903 8.27539 29.8455 9.24444 31.9325C9.77411 33.0732 10.3782 33.4542 12.0379 32.5594C15.1657 30.873 18.435 26.9406 20.8111 22.3094C22.2053 19.5925 21.8828 16.9311 21.1438 15.5682C19.7521 13.4094 17.2516 13.2464 15.4654 14.2094C13.7065 15.1578 11.1435 16.4111 8.28632 20.0738C8.2183 20.161 8.08335 20.0738 8.13485 19.9754C10.0278 16.3742 13.5533 13.4453 16.851 12.1549C17.1509 12.0375 17.3958 11.814 17.5561 11.535C19.3401 8.42416 19.7129 5.86902 18.6601 3.92744C17.274 1.37099 13.8223 1.6516 11.8116 2.73567Z" fill="url(#paint0_linear_5905_40)"/>
<path d="M10.8888 1.0241C12.1938 0.320532 13.9371 -0.121275 15.6415 0.0294883C17.3956 0.18467 19.2871 1.00452 20.3694 3.00061C21.8279 5.69049 21.2171 8.83939 19.5303 11.9839C20.7134 12.3537 21.8263 13.1128 22.6799 14.3667L22.7781 14.5146L22.818 14.5765L22.8531 14.6415C23.8986 16.5698 24.2019 19.8378 22.6178 23.0444L22.5411 23.1971C20.0838 27.9867 16.5852 32.3168 12.9607 34.271C12.0642 34.7543 10.8838 35.2353 9.66428 34.8735C8.37061 34.4897 7.77641 33.388 7.48079 32.7513C6.7743 31.2297 6.70067 29.3922 6.95785 27.5462C7.02018 27.0988 7.1036 26.6398 7.20679 26.1707C6.20012 26.451 5.15378 26.4618 4.21744 26.2719C2.94032 26.0129 1.51433 25.297 0.769139 23.9227C-0.156966 22.2146 -0.125995 20.0911 0.233475 18.1589C0.605211 16.1608 1.39339 14.019 2.38259 12.0125H2.38278C3.7904 9.15764 5.107 6.47922 7.30306 4.00738L7.32091 3.98725L7.33952 3.9675C7.82417 3.45161 9.06714 2.00626 10.8888 1.0241ZM18.6601 3.92744C17.2739 1.37103 13.8222 1.65166 11.8115 2.73572L11.6733 2.81206C10.2581 3.61237 9.28051 4.74112 8.75663 5.29878L8.57187 5.50993C6.68528 7.69789 5.50472 10.0774 4.12668 12.8723L3.95388 13.2287C2.19681 16.9185 1.29939 20.8212 2.47848 22.9958C3.23465 24.3904 5.72143 24.9283 7.48459 23.9777C8.44859 23.458 9.94113 22.6226 10.4107 22.0812C10.478 22.0035 10.6024 22.0814 10.562 22.1763C8.8121 26.2903 8.27539 29.8456 9.24444 31.9325C9.77411 33.0732 10.3781 33.4542 12.0378 32.5594C15.1657 30.873 18.435 26.9406 20.8111 22.3094C22.1617 19.6774 21.9012 17.0975 21.2117 15.6997L21.1437 15.5683C19.752 13.4095 17.2516 13.2465 15.4654 14.2095C13.7065 15.1578 11.1434 16.4112 8.28628 20.0739C8.21828 20.161 8.08343 20.0738 8.13476 19.9755C10.0277 16.3743 13.5533 13.4453 16.851 12.1549C17.1509 12.0375 17.3958 11.814 17.5561 11.535C19.34 8.42413 19.7128 5.86901 18.6601 3.92744Z" fill="var(--token-neutral-5)"/>
<defs>
<linearGradient id="paint0_linear_5905_40" x1="11.8609" y1="1.94446" x2="11.8609" y2="33.0551" gradientUnits="userSpaceOnUse">
<stop stop-color="var(--logo-color-start)"/>
<stop offset="1" stop-color="var(--logo-color-end)"/>
</linearGradient>
</defs>
</svg>
