<svg viewBox="0 0 124 175" fill="none" xmlns="http://www.w3.org/2000/svg">
<path d="M85.6538 1.02402C75.836 3.3689 68.1103 8.64063 64.1079 11.1369C49.1507 21.0543 38.3992 33.3225 25.7522 47.828C9.12839 66.8963 -2.91752 89.0189 0.619159 103.904C2.81634 113.152 16.299 120.118 27.917 117.343C34.2691 115.826 44.1515 113.299 47.6913 110.891C48.1989 110.545 48.7947 111.189 48.4156 111.676C31.9844 132.791 23.3998 152.549 25.7522 166.136C27.038 173.563 29.9261 176.705 40.8624 174.093C61.473 169.17 86.7381 148.882 107.573 125.741C119.797 112.166 121.685 98.83 119.537 89.7926C114.889 70.2278 101.075 68.8654 89.3053 71.6765C77.7151 74.4447 60.6723 79.1879 38.5653 95.9754C38.039 96.3752 37.3971 95.6609 37.8455 95.171C54.3074 77.2468 79.1272 65.7441 100.103 63.3777C102.011 63.1622 103.766 62.247 105.12 60.8794C120.196 45.626 126.291 31.4057 123.233 18.5312C119.205 1.57954 98.9032 -2.14044 85.6538 1.02402Z" fill="var(--primary)"/>
</svg>
