<svg width="180" height="180" viewBox="0 0 180 180" fill="none" xmlns="http://www.w3.org/2000/svg">
<path d="M114.229 10.8616C105.715 12.8914 98.5607 16.8619 95.0898 19.0228C82.1193 27.6075 70.2988 42.6124 59.3316 55.1688C44.9158 71.6749 34.4698 90.8249 37.5368 103.71C39.4421 111.715 46.1643 117.287 56.2392 114.885C61.7476 113.572 66.9717 110.464 70.0414 108.378C70.4816 108.079 70.9983 108.637 70.6695 109.059C56.4207 127.336 47.2892 144.683 50.3857 157.692C53.026 168.785 62.2315 171.571 72.0228 169.236C89.896 164.975 110.452 143.3 128.519 123.268C139.12 111.516 140.757 99.9726 138.895 92.1495C134.864 75.2137 119.68 72.9215 109.474 75.3549C99.423 77.7512 84.6439 81.857 65.4732 96.3888C65.0168 96.7348 64.4601 96.1166 64.849 95.6925C79.1244 80.1768 100.648 70.2196 118.838 68.1713C120.492 67.9848 122.014 67.1924 123.188 66.0086C136.262 52.8049 145.185 37.3887 142.532 26.2441C139.04 11.5703 125.719 8.12233 114.229 10.8616Z" fill="#F6734A"/>
<path d="M111.91 1.1342C119.259 -0.617793 127.816 -0.564714 135.501 2.91155C143.572 6.56312 149.81 13.6336 152.261 23.9281L152.445 24.766C154.213 33.429 151.541 42.3335 147.658 49.9135C144.279 56.5097 139.504 63.0512 134.017 69.1117C140.857 73.1551 146.275 79.9708 148.623 89.8334L148.624 89.8344C151.329 101.205 148.497 116.048 135.944 129.964C126.911 139.98 116.911 150.801 106.796 159.681C96.9007 168.368 85.761 176.24 74.3417 178.962L74.3427 178.963C68.0547 180.463 60.8427 180.604 54.3095 177.569C47.3654 174.343 42.6014 168.177 40.6571 160.008C38.377 150.429 40.8124 140.424 44.8896 131.279C45.7905 129.258 46.798 127.221 47.8983 125.173C44.4668 124.669 41.2296 123.466 38.3232 121.551C32.6645 117.824 29.2443 112.058 27.8085 106.026C25.485 96.2638 28.4697 85.6932 32.8495 76.4975C37.3771 66.9916 44.1766 57.3188 51.7997 48.5903C62.1012 36.7962 75.1411 20.2343 89.5702 10.684L89.6864 10.6069L89.8046 10.5336C93.7208 8.0955 101.918 3.51641 111.91 1.1342ZM142.532 26.2446C139.04 11.5708 125.719 8.12259 114.229 10.8617L113.435 11.0571C105.272 13.1373 98.4522 16.9295 95.0898 19.0229L94.4823 19.4301C81.7501 28.076 70.1276 42.8084 59.3319 55.1684C44.9161 71.6745 34.4701 90.8252 37.537 103.71C39.4425 111.715 46.1644 117.287 56.2392 114.885C61.7475 113.571 66.9722 110.464 70.0419 108.378C70.482 108.08 70.9985 108.638 70.6698 109.059C56.4212 127.336 47.2895 144.683 50.3857 157.692C53.026 168.785 62.232 171.571 72.0233 169.236C89.8964 164.975 110.453 143.3 128.519 123.268C139.12 111.517 140.757 99.9729 138.895 92.1498C134.864 75.2141 119.68 72.9215 109.474 75.3549C99.4227 77.7512 84.644 81.8575 65.4735 96.3891L65.3866 96.4428C64.9508 96.6582 64.485 96.0904 64.8495 95.6928C79.1249 80.1771 100.648 70.2197 118.838 68.1713C120.492 67.9848 122.014 67.192 123.188 66.0082C136.262 52.8047 145.185 37.389 142.532 26.2446Z" fill="black"/>
</svg>
