<svg width="32" height="32" viewBox="0 0 32 32" fill="none" xmlns="http://www.w3.org/2000/svg">
<path d="M16 10.267C16 10.4504 15.9594 10.6315 15.8813 10.7975L12.3421 18.3082C12.1367 18.7441 11.6982 19.0222 11.2164 19.0222L4.79999 19.0222C4.1127 19.0222 3.55555 18.465 3.55555 17.7777L3.55555 7.8222C3.55555 7.13492 4.1127 6.57776 4.79999 6.57776L14.7555 6.57776C15.4428 6.57776 16 7.13492 16 7.8222L16 10.267Z" fill="#F8F9FA"/>
<path d="M16 10.267L16 7.82221C16 7.15641 15.4771 6.61267 14.8196 6.57933L14.7555 6.57777L14.7555 3.02222C17.4065 3.02222 19.5555 5.17125 19.5555 7.82221L19.5555 10.267C19.5555 10.9744 19.3991 11.6731 19.0975 12.313L15.5585 19.8238C14.7663 21.5049 13.0748 22.5778 11.2163 22.5778L4.8 22.5778C2.14903 22.5778 3.8147e-06 20.4287 3.8147e-06 17.7778L3.8147e-06 7.82221C4.0896e-06 5.17125 2.14903 3.02222 4.8 3.02222L4.8 6.57777L4.73594 6.57933C4.07842 6.61267 3.55555 7.15641 3.55555 7.82221L3.55555 17.7778C3.55555 18.4436 4.07842 18.9873 4.73594 19.0206L4.8 19.0222L11.2163 19.0222C11.6831 19.0222 12.1093 18.7612 12.3222 18.3486L12.3422 18.3081L15.8812 10.7974C15.9496 10.6522 15.9893 10.4954 15.9981 10.3356L16 10.267ZM14.7555 3.02222L14.7555 6.57777L4.8 6.57777L4.8 3.02222L14.7555 3.02222Z" fill="#101419"/>
<path d="M28.4444 24C28.4444 24.6873 27.8873 25.2445 27.2 25.2445L17.2444 25.2445C16.5572 25.2445 16 24.6873 16 24L16 20.6223C16 20.4389 16.0405 20.2578 16.1187 20.0919L19.2182 13.514C19.4236 13.0782 19.8621 12.8 20.3439 12.8L27.2 12.8C27.8873 12.8 28.4444 13.3572 28.4444 14.0445L28.4444 24Z" fill="#F6734A"/>
<path d="M16 24C16 24.6873 16.5572 25.2445 17.2445 25.2445L27.2 25.2445L27.2641 25.2429C27.9004 25.2107 28.4106 24.7004 28.4429 24.0641L28.4444 24L28.4444 14.0445C28.4444 13.3787 27.9216 12.835 27.2641 12.8016L27.2 12.8001L27.2 9.24451C29.851 9.24451 32 11.3935 32 14.0445L32 24C32 26.651 29.851 28.8 27.2 28.8L17.2445 28.8C14.5935 28.8 12.4445 26.651 12.4445 24L12.4445 20.6223C12.4445 19.9149 12.6008 19.2162 12.9023 18.5763L16.0017 11.9985L16.0396 11.9202C16.8469 10.2841 18.5145 9.24451 20.3439 9.24451L20.3439 12.8001L20.299 12.8009C19.835 12.8176 19.4172 13.0919 19.2182 13.5141L16.1188 20.0919C16.0406 20.2578 16 20.4389 16 20.6223L16 24ZM27.2 9.24451L27.2 12.8001L20.3439 12.8001L20.3439 9.24451L27.2 9.24451Z" fill="#101419"/>
</svg>
