<svg width="180" height="180" viewBox="0 0 180 180" fill="none" xmlns="http://www.w3.org/2000/svg">
<path fill-rule="evenodd" clip-rule="evenodd" d="M139.683 67.7555C140.877 66.1627 142.958 65.5125 144.847 66.1422C146.735 66.772 148.01 68.5399 148.01 70.5309V128.361C148.01 130.352 146.735 132.121 144.847 132.751L87.0166 152.027C85.0968 152.667 82.9831 151.985 81.7998 150.343C80.6166 148.702 80.6383 146.481 81.8525 144.862L139.683 67.7555ZM102.094 134.539C101.505 135.323 102.28 136.398 103.21 136.088L137.326 124.716C137.734 124.58 138.01 124.198 138.01 123.767V89.6519C138.01 88.6909 136.786 88.2831 136.21 89.0519L102.094 134.539Z" fill="#101419"/>
<path fill-rule="evenodd" clip-rule="evenodd" d="M93.7285 27.9742C95.648 27.3346 97.761 28.0167 98.9443 29.6578C100.127 31.2994 100.106 33.5204 98.8925 35.1393L41.0625 112.246C39.8677 113.839 37.7874 114.488 35.8984 113.859C34.0094 113.229 32.7345 111.461 32.7343 109.47V51.6403C32.7345 49.6491 34.0094 47.8803 35.8984 47.2506L93.7285 27.9742ZM43.4181 55.2844C43.0098 55.4205 42.7343 55.8027 42.7343 56.2331V90.3492C42.7343 91.3102 43.9577 91.718 44.5343 90.9492L78.6505 45.461C79.2387 44.6767 78.4643 43.6023 77.5343 43.9123L43.4181 55.2844Z" fill="#101419"/>
<path fill-rule="evenodd" clip-rule="evenodd" d="M84.958 1.66271C98.3872 -2.81351 113.168 1.95891 121.444 13.442C125.986 19.7431 127.99 27.2625 127.471 34.637C127.268 37.5233 131.012 40.4888 133.775 39.6297C140.098 37.6635 147.024 37.633 153.617 39.8307C166.831 44.2356 175.745 56.602 175.745 70.5309V128.361C175.745 142.29 166.831 154.657 153.617 159.062L95.7871 178.339C82.3579 182.815 67.5775 178.043 59.3007 166.56C54.7589 160.259 52.7538 152.739 53.2724 145.363C53.4754 142.477 49.7312 139.512 46.9683 140.371C40.6456 142.337 33.7207 142.368 27.1279 140.171C13.9137 135.766 5.00015 123.399 4.99995 109.47V51.6403C5.00011 37.7113 13.9136 25.3439 27.1279 20.9391L84.958 1.66271ZM150.455 49.317C141.324 46.2736 131.27 49.4147 125.495 57.1139L67.664 134.221C61.7954 142.046 61.694 152.778 67.413 160.713C73.1322 168.647 83.3448 171.945 92.624 168.852L150.455 149.575C159.585 146.531 165.745 137.985 165.745 128.361V70.5309C165.745 60.9064 159.585 52.3608 150.455 49.317ZM113.331 19.2887C107.612 11.3541 97.3992 8.05712 88.1201 11.15L30.29 30.4264C21.1592 33.47 15.0001 42.0156 15 51.6403V109.47C15.0001 119.095 21.1592 127.641 30.29 130.684C39.4207 133.728 49.4751 130.587 55.25 122.887L113.08 45.7799C118.949 37.9549 119.05 27.2236 113.331 19.2887Z" fill="#101419"/>
<path fill-rule="evenodd" clip-rule="evenodd" d="M125.494 57.1146C131.269 49.4148 141.323 46.2741 150.454 49.3176C159.585 52.3613 165.744 60.9063 165.744 70.5311V128.361C165.744 137.986 159.585 146.532 150.454 149.575L92.624 168.852C83.3447 171.945 73.1321 168.648 67.4129 160.713C61.6937 152.778 61.7953 142.047 67.664 134.222L125.494 57.1146ZM144.846 66.1423C142.957 65.5125 140.877 66.1625 139.682 67.7556L81.852 144.863C80.6378 146.482 80.6165 148.702 81.7997 150.343C82.983 151.985 85.0962 152.667 87.0161 152.027L144.846 132.751C146.735 132.121 148.01 130.353 148.01 128.361V70.5311C148.01 68.5399 146.735 66.772 144.846 66.1423Z" fill="#F6734A"/>
<path fill-rule="evenodd" clip-rule="evenodd" d="M88.1202 11.15C97.3996 8.05694 107.612 11.3542 113.331 19.2891C119.05 27.2241 118.949 37.9554 113.08 45.7804L55.25 122.887C49.4751 130.587 39.4208 133.728 30.29 130.684C21.1591 127.641 15.0001 119.096 15 109.471V51.6406C15 42.0157 21.159 33.4704 30.29 30.4267L88.1202 11.15ZM98.9446 29.6587C97.7613 28.0169 95.6481 27.3346 93.7282 27.9746L35.8979 47.2513C34.0088 47.8811 32.7346 49.6492 32.7346 51.6406V109.471C32.7347 111.462 34.0089 113.23 35.8979 113.86C37.787 114.489 39.8672 113.839 41.062 112.246L98.8923 35.1394C100.106 33.5205 100.128 31.3003 98.9446 29.6587Z" fill="#F8F9FA"/>
</svg>
