<svg width="32" height="32" viewBox="0 0 32 32" fill="none" xmlns="http://www.w3.org/2000/svg">
<path d="M15.3794 3.81693C15.7847 2.97121 16.8114 2.6095 17.6722 3.00411C18.5343 3.39959 18.9088 4.40674 18.5029 5.25416L10.7546 21.4273C10.3493 22.2733 9.3221 22.6351 8.46128 22.2403C7.59912 21.8449 7.2248 20.8377 7.63076 19.9903L15.3794 3.81693Z" fill="#F8F9FA"/>
<path d="M6.31109 12.6222C5.37834 12.6222 4.6222 11.8661 4.6222 10.9333C4.6222 10.0006 5.37834 9.24444 6.31109 9.24444L12.8889 9.24444C13.8216 9.24444 14.5778 10.0006 14.5778 10.9333C14.5778 11.8661 13.8216 12.6222 12.8889 12.6222L6.31109 12.6222Z" fill="#F8F9FA"/>
<path d="M12.9747 2.66464C14.0237 0.475573 16.6317 -0.406404 18.7835 0.580094L18.784 0.580267C20.9664 1.58135 21.9736 4.18115 20.9078 6.40613V6.40631L13.1596 22.5796C12.1106 24.7691 9.50166 25.6512 7.34967 24.6643H7.3495C5.16656 23.663 4.16024 21.0628 5.22588 18.8383V18.8381L6.92623 15.2889L6.31113 15.2889C3.94319 15.2889 2.01656 13.3993 1.95696 11.0457L1.95557 10.9334L1.95696 10.8209C2.01661 8.46736 3.94322 6.57784 6.31113 6.57784L6.31113 9.2445L6.22415 9.24659C5.33182 9.29185 4.62224 10.0298 4.62224 10.9334C4.62226 11.8369 5.33184 12.5748 6.22415 12.62L6.31113 12.6223L11.1608 12.6223L7.63075 19.9903C7.22482 20.8378 7.59917 21.8449 8.4613 22.2403C9.2952 22.6228 10.2852 22.2952 10.7148 21.5053L10.7547 21.4273L18.503 5.25423C18.8962 4.43328 18.557 3.46235 17.7516 3.04294L17.6722 3.00405C16.8115 2.60945 15.7846 2.97119 15.3794 3.8169L12.779 9.2445L6.31113 9.2445L6.31113 6.57784L11.0998 6.57784L12.9745 2.66482L12.9747 2.66464Z" fill="#101419"/>
<path d="M21.0685 10.2345C21.4738 9.37342 22.5005 9.00513 23.3613 9.40692C24.2235 9.80959 24.598 10.8351 24.1921 11.6979L16.4435 28.1653C16.0382 29.0266 15.0109 29.395 14.1501 28.993C13.2879 28.5904 12.9135 27.5649 13.3195 26.7021L21.0685 10.2345Z" fill="#F6734A"/>
<path d="M19.1111 22.4C18.1783 22.4 17.4222 21.6439 17.4222 20.7111C17.4222 19.7784 18.1783 19.0222 19.1111 19.0222L25.6889 19.0222C26.6216 19.0222 27.3777 19.7784 27.3777 20.7111C27.3777 21.6439 26.6216 22.4 25.6889 22.4L19.1111 22.4Z" fill="#F6734A"/>
<path d="M18.6558 9.09893C19.6897 6.90232 22.303 5.9701 24.4893 6.99059L24.4898 6.99077C26.6821 8.01465 27.6425 10.6281 26.6051 12.8331V12.8333L24.9478 16.3555L25.6889 16.3555L25.6889 19.0222L20.7459 19.0222L24.1922 11.6979C24.5981 10.8351 24.2236 9.80959 23.3615 9.40691C22.5007 9.00513 21.4739 9.37346 21.0686 10.2345L13.3197 26.702C12.9137 27.5649 13.288 28.5904 14.1502 28.993C14.9841 29.3824 15.9742 29.0488 16.4037 28.2446L16.4436 28.1652L19.1565 22.4L25.6889 22.4C26.6217 22.4 27.3778 21.6438 27.3778 20.7111C27.3778 19.7784 26.6217 19.0222 25.6889 19.0222L25.6889 16.3555C28.0944 16.3555 30.0445 18.3056 30.0445 20.7111C30.0445 23.1166 28.0944 25.0666 25.6889 25.0666L20.8488 25.0666L18.8565 29.3007C17.8226 31.4978 15.2084 32.4303 13.0219 31.4093L13.0217 31.4092C10.8289 30.3851 9.86937 27.7713 10.9066 25.5666L18.6556 9.0991L18.6558 9.09893Z" fill="#101419"/>
</svg>
