<svg width="180" height="180" viewBox="0 0 180 180" fill="none" xmlns="http://www.w3.org/2000/svg">
<path d="M89.7461 14.0701C82.0834 18.2014 76.8159 24.2915 74.0347 27.2519C63.7723 38.803 57.5389 51.3646 50.2231 66.2022C40.6072 85.7069 35.4871 106.722 41.7469 118.267C45.6359 125.439 58.4251 128.205 67.4929 123.317C72.4507 120.644 80.1269 116.347 82.5419 113.563C82.8882 113.163 83.5281 113.564 83.3204 114.052C74.3205 135.21 71.5597 153.494 76.5435 164.227C79.2676 170.094 82.3742 172.053 90.9099 167.451C106.996 158.779 123.81 138.554 136.03 114.737C143.2 100.764 141.542 87.0763 137.741 80.0669C130.583 68.9645 117.724 68.1261 108.538 73.0789C99.4916 77.956 86.3102 84.4018 71.616 103.239C71.2661 103.688 70.5721 103.239 70.837 102.733C80.5724 84.2123 98.7039 69.1491 115.664 62.5127C117.206 61.9089 118.465 60.7594 119.29 59.3245C128.465 43.3256 130.382 30.1847 124.968 20.1993C117.839 7.05165 100.087 8.49481 89.7461 14.0701Z" fill="url(#paint0_linear_3998_5)"/>
<path d="M85.0006 5.26752C91.7121 1.6491 100.678 -0.623083 109.443 0.152282C118.464 0.95037 128.192 5.16683 133.758 15.4326C141.259 29.2664 138.118 45.461 129.443 61.6328C135.528 63.5349 141.251 67.4388 145.641 73.8876L146.146 74.6484L146.351 74.9667L146.532 75.3007C151.909 85.2182 153.469 102.025 145.322 118.517L144.927 119.302C132.289 143.934 114.297 166.204 95.6559 176.254C91.0453 178.74 84.9749 181.213 78.7028 179.352C72.0495 177.379 68.9936 171.713 67.4733 168.438C63.8398 160.613 63.4611 151.163 64.7838 141.669C65.1044 139.368 65.5334 137.007 66.0641 134.595C60.8868 136.036 55.5056 136.092 50.6901 135.115C44.1219 133.783 36.7882 130.101 32.9557 123.033C28.1928 114.249 28.3521 103.328 30.2008 93.3906C32.1126 83.1147 36.1662 72.0993 41.2536 61.7802H41.2545C48.4938 47.0977 55.265 33.3228 66.5592 20.6103L66.651 20.5068L66.7467 20.4052C69.2392 17.752 75.6318 10.3187 85.0006 5.26752ZM124.967 20.1992C117.839 7.05176 100.087 8.49498 89.7457 14.0703L89.0348 14.4628C81.7566 18.5788 76.7291 24.3839 74.0348 27.2519L73.0846 28.3378C63.382 39.5903 57.3105 51.8281 50.2233 66.2021L49.3346 68.0351C40.2981 87.0111 35.6828 107.082 41.7467 118.267C45.6357 125.439 58.425 128.205 67.4928 123.316C72.4506 120.643 80.1266 116.347 82.5416 113.562C82.8879 113.163 83.5275 113.564 83.32 114.052C74.3201 135.21 71.5598 153.494 76.5436 164.227C79.2676 170.094 82.3742 172.053 90.9098 167.451C106.996 158.778 123.81 138.554 136.03 114.736C142.976 101.2 141.636 87.9316 138.09 80.7431L137.741 80.0673C130.583 68.9649 117.724 68.1263 108.538 73.079C99.4916 77.9562 86.31 84.4022 71.6159 103.239C71.2661 103.687 70.5726 103.239 70.8366 102.733C80.5719 84.2127 98.7038 69.1491 115.664 62.5126C117.206 61.9088 118.465 60.7591 119.29 59.3242C128.464 43.3254 130.382 30.1845 124.967 20.1992Z" fill="#101419"/>
<defs>
<linearGradient id="paint0_linear_3998_5" x1="89.9996" y1="10.0009" x2="89.9996" y2="170.001" gradientUnits="userSpaceOnUse">
<stop stop-color="#25AC89"/>
<stop offset="1" stop-color="#F2C89D"/>
</linearGradient>
</defs>
</svg>
