<svg width="180" height="180" viewBox="0 0 180 180" fill="none" xmlns="http://www.w3.org/2000/svg">
<path fill-rule="evenodd" clip-rule="evenodd" d="M129.752 57.1138C135.527 49.4139 145.581 46.2732 154.712 49.3168C163.843 52.3605 170.002 60.9056 170.002 70.5304V128.361C170.002 137.986 163.843 146.531 154.712 149.575L96.8817 168.852C87.6024 171.945 77.3897 168.648 71.6704 160.713C65.9512 152.778 66.0528 142.046 71.9215 134.221L129.752 57.1138ZM149.104 66.1415C147.215 65.5118 145.135 66.1618 143.94 67.7548L86.1096 144.862C84.8955 146.481 84.8741 148.701 86.0573 150.343C87.2406 151.985 89.3539 152.667 91.2737 152.027L149.104 132.75C150.993 132.12 152.268 130.352 152.268 128.361V70.5304C152.268 68.5392 150.993 66.7712 149.104 66.1415Z" fill="#F6734A"/>
<path d="M121.752 51.1142C130.11 39.971 144.66 35.4255 157.874 39.83C171.088 44.2348 180.002 56.6011 180.002 70.5302V128.361C180.002 142.29 171.089 154.657 157.874 159.061L100.044 178.339C86.6148 182.815 71.8346 178.043 63.5579 166.56C55.2814 155.076 55.4281 139.546 63.9212 128.222L121.752 51.1142ZM154.712 49.3164C145.581 46.2729 135.527 49.4145 129.752 57.1142L71.9212 134.222C66.0527 142.047 65.9511 152.778 71.6702 160.713C77.3895 168.648 87.6028 171.945 96.8821 168.852L154.712 149.575C163.843 146.531 170.002 137.986 170.002 128.361V70.5302C170.002 60.9055 163.843 52.36 154.712 49.3164ZM143.941 67.7548C145.136 66.162 147.216 65.5119 149.105 66.1416C150.994 66.7714 152.268 68.5392 152.268 70.5302V128.361C152.268 130.352 150.993 132.12 149.105 132.75L91.2737 152.027C89.3539 152.667 87.2402 151.984 86.0569 150.343C84.8741 148.701 84.8956 146.481 86.1097 144.862L143.941 67.7548ZM104.431 137.1L142.268 124.487V86.6513L104.431 137.1Z" fill="black"/>
<path fill-rule="evenodd" clip-rule="evenodd" d="M83.1207 11.1498C92.4001 8.05681 102.613 11.354 108.332 19.2891C114.051 27.2241 113.95 37.9554 108.081 45.7804L50.2503 122.888C44.4754 130.588 34.421 133.728 25.2901 130.685C16.1592 127.641 10.0002 119.096 10 109.471V51.6407C10 42.0158 16.1591 33.4704 25.2901 30.4267L83.1207 11.1498ZM93.9452 29.6587C92.7618 28.0169 90.6486 27.3346 88.7287 27.9746L30.8981 47.2514C29.009 47.8812 27.7348 49.6494 27.7348 51.6407V109.471C27.7349 111.463 29.0091 113.23 30.8981 113.86C32.7872 114.49 34.8674 113.84 36.0622 112.247L93.8928 35.1394C95.107 33.5205 95.1282 31.3003 93.9452 29.6587Z" fill="#F8F9FA"/>
<path d="M79.959 1.66295C93.1786 -2.74325 107.706 1.81206 116.052 12.909L116.444 13.4422L116.826 13.9833C124.714 25.4096 124.442 40.6324 116.081 51.7801L58.25 128.888C50.0231 139.857 35.7952 144.433 22.7481 140.372L22.128 140.172C8.9137 135.767 0.000275234 123.401 3.05176e-05 109.472V51.6405C0.000108634 37.7114 8.91362 25.3451 22.128 20.9403L79.958 1.66295H79.959ZM108.332 19.2889C102.613 11.354 92.4004 8.05735 83.1211 11.1503L25.2901 30.4266C16.1592 33.4703 10.0001 42.0157 10 51.6405V109.472C10.0003 119.096 16.1593 127.641 25.2901 130.684C34.421 133.728 44.4751 130.587 50.25 122.888L108.081 45.7801C113.95 37.9551 114.051 27.2239 108.332 19.2889ZM88.7285 27.9745C90.6484 27.3345 92.762 28.0173 93.9453 29.659C95.1282 31.3007 95.1067 33.5207 93.8926 35.1395L36.0625 112.247C34.8678 113.84 32.7875 114.49 30.8985 113.86C29.0095 113.231 27.7347 111.463 27.7344 109.472V51.6405C27.7345 49.6492 29.0094 47.8815 30.8985 47.2518L88.7285 27.9745ZM37.7344 55.5135V93.3504L75.5703 42.9012L37.7344 55.5135Z" fill="black"/>
</svg>
