<svg width="180" height="180" viewBox="0 0 180 180" fill="none" xmlns="http://www.w3.org/2000/svg">
<path d="M111.747 10.9366C102.721 13.0805 95.6187 17.9004 91.9391 20.1827C78.1881 29.25 68.3036 40.4667 56.6766 53.7288C41.3934 71.1627 30.3189 91.389 33.5704 104.998C35.5904 113.453 47.9857 119.822 58.6668 117.285C64.5067 115.898 73.5921 113.588 76.8464 111.386C77.3131 111.07 77.8608 111.659 77.5123 112.104C62.4062 131.41 54.5139 149.474 56.6766 161.896C57.8587 168.686 60.5139 171.559 70.5682 169.171C89.5167 164.67 112.744 146.121 131.899 124.964C143.137 112.552 144.873 100.359 142.898 92.0964C138.625 74.2087 125.925 72.963 115.104 75.5331C104.449 78.064 88.7805 82.4007 68.4564 97.7493C67.9725 98.1148 67.3824 97.4618 67.7946 97.0138C82.9289 80.626 105.747 70.1092 125.032 67.9457C126.786 67.7487 128.399 66.9119 129.644 65.6615C143.504 51.7156 149.108 38.7142 146.296 26.9432C142.593 11.4445 123.928 8.04338 111.747 10.9366Z" fill="#F6734A"/>
<path d="M109.437 1.20739C117.23 -0.643618 126.952 -0.516086 135.627 2.64782C144.545 5.90037 153.194 12.7825 156.022 24.6195C159.756 40.2511 152.641 55.497 139.869 69.4291C146.065 73.682 150.423 80.5557 152.625 89.7728C155.407 101.415 152.598 116.618 139.922 130.992L139.312 131.675C129.391 142.633 118.316 153.032 107.115 161.344C96.0443 169.561 84.2341 176.203 72.8791 178.9C67.4753 180.183 60.7741 181 55.0675 177.5C49.0208 173.792 47.4796 167.375 46.8244 163.612C45.2781 154.73 47.4512 145.035 51.4103 135.683C52.5036 133.101 53.7623 130.475 55.175 127.817C49.1798 128.081 43.3182 126.655 38.4162 124.216C32.1274 121.087 25.7749 115.404 23.8439 107.322C21.4224 97.1854 24.5271 86.1558 29.1506 76.4847C33.9232 66.5018 41.0997 56.3277 49.1574 47.1361C60.6703 34.0042 71.3874 21.7559 86.4338 11.8343L86.55 11.7582L86.6681 11.6849C89.9893 9.62492 98.5256 3.799 109.437 1.20739ZM146.296 26.9427C142.593 11.4443 123.928 8.04368 111.747 10.9369L110.906 11.1449C102.28 13.3789 95.5033 17.972 91.9386 20.183C78.188 29.2502 68.3038 40.467 56.6769 53.7289C41.3937 71.1628 30.319 91.3891 33.5705 104.998C35.559 113.321 47.6011 119.623 58.1652 117.398L58.6672 117.286C64.4272 115.917 73.3429 113.649 76.7082 111.474L76.8468 111.386C77.3134 111.071 77.8603 111.659 77.5119 112.104C62.4059 131.409 54.5142 149.475 56.6769 161.897C57.8221 168.474 60.3494 171.375 69.6466 169.379L70.5685 169.171C89.517 164.671 112.744 146.121 131.899 124.963C142.786 112.939 144.755 101.121 143.072 92.8822L142.899 92.0961C138.625 74.2087 125.925 72.9635 115.105 75.5336C104.449 78.0645 88.7803 82.4008 68.4562 97.7494C67.9725 98.1146 67.3825 97.4619 67.7941 97.014C82.9283 80.6263 105.747 70.1093 125.031 67.9457C126.785 67.7486 128.399 66.9119 129.644 65.6615C143.288 51.9334 148.931 39.1204 146.421 27.4955L146.296 26.9427Z" fill="#101419"/>
</svg>
