<svg width="32" height="32" viewBox="0 0 32 32" fill="none" xmlns="http://www.w3.org/2000/svg">
<path fill-rule="evenodd" clip-rule="evenodd" d="M13.5111 0.00012296C16.8493 0.00012296 19.5555 2.7063 19.5555 6.04455L19.5555 10.6668C19.5555 11.6486 20.3514 12.4445 21.3333 12.4445L25.9555 12.4445C29.2937 12.4445 31.9999 15.1507 31.9999 18.489L31.9999 25.9556C31.9999 29.2938 29.2937 32 25.9555 32L18.4888 32C15.1506 32 12.4444 29.2938 12.4444 25.9556L12.4444 21.3334C12.4444 20.3516 11.6485 19.5556 10.6666 19.5556L6.04443 19.5556C2.70619 19.5556 3.8147e-06 16.8494 3.8147e-06 13.5112L3.8147e-06 6.04455C3.8147e-06 2.7063 2.70619 0.00012296 6.04443 0.00012296L13.5111 0.00012296ZM19.0208 16.0001C18.4156 17.3377 17.3376 18.4157 16 19.0209L16 25.9556L16.0008 26.0198C16.0344 27.3434 17.1011 28.4101 18.4246 28.4436L18.4888 28.4445L25.9555 28.4445L26.0197 28.4436C27.3433 28.4101 28.41 27.3434 28.4435 26.0198L28.4444 25.9556L28.4444 18.489C28.4444 17.1359 27.3646 16.035 26.0197 16.0009L25.9555 16.0001L19.0208 16.0001ZM6.04443 3.55567L5.9802 3.55654C4.63531 3.59061 3.55555 4.69145 3.55555 6.04455L3.55555 13.5112L3.55642 13.5754C3.58995 14.899 4.65666 15.9657 5.9802 15.9992L6.04443 16.0001L12.9791 16.0001C13.5844 14.6624 14.6623 13.5843 16 12.9791L16 6.04455C16 4.69145 14.9202 3.59061 13.5753 3.55654L13.5111 3.55567L6.04443 3.55567Z" fill="black"/>
<path d="M3.55555 6.04455C3.55555 4.66997 4.66986 3.55566 6.04443 3.55566L13.5111 3.55566C14.8856 3.55566 16 4.66998 16 6.04455L16 13.5112C16 14.8858 14.8856 16.0001 13.5111 16.0001L6.04443 16.0001C4.66986 16.0001 3.55555 14.8858 3.55555 13.5112L3.55555 6.04455Z" fill="#FFEEA4"/>
<path d="M15.9999 18.4889C15.9999 17.1143 17.1142 16 18.4888 16L25.9554 16C27.33 16 28.4443 17.1143 28.4443 18.4889L28.4443 25.9555C28.4443 27.3301 27.33 28.4444 25.9554 28.4444L18.4888 28.4444C17.1142 28.4444 15.9999 27.3301 15.9999 25.9555L15.9999 18.4889Z" fill="#F6734A"/>
</svg>
