<svg width="48" height="48" viewBox="0 0 48 48" fill="none" xmlns="http://www.w3.org/2000/svg">
<path d="M21.2458 3.09282C24.6338 1.31879 28.7363 1.5725 31.8771 3.75283L38.9459 8.65973C44.1957 12.3043 44.7194 19.6214 40.519 24.0001C44.7194 28.3789 44.1957 35.696 38.9459 39.3405L31.8771 44.2474C28.7363 46.4278 24.6338 46.6815 21.2458 44.9074L10.3848 39.2205C7.02861 37.4631 4.92009 34.0007 4.92004 30.2195V17.7807C4.92009 13.9996 7.02861 10.5371 10.3848 8.77973L21.2458 3.09282ZM30.7821 5.32971C28.2292 3.5575 24.8918 3.35069 22.1364 4.79346L11.2754 10.4804C8.54733 11.9088 6.8401 14.7191 6.84005 17.7807V30.2195C6.8401 33.2811 8.54733 36.0914 11.2754 37.5199L22.1364 43.2068C24.8918 44.6496 28.2292 44.4427 30.7821 42.6705L37.8508 37.7627C42.5833 34.4771 42.5835 27.5209 37.8508 24.2354L37.5115 24.0001L37.8508 23.7648C42.5835 20.4793 42.5833 13.5231 37.8508 10.2375L30.7821 5.32971ZM35.5811 27.4567C38.0602 29.1777 38.0602 32.8214 35.5811 34.5424L28.5124 39.4493C27.1751 40.3775 25.4275 40.4862 23.9842 39.7305L18.6573 36.9414C19.0873 36.7401 19.51 36.4975 19.9211 36.2121L29.2689 29.7227L34.069 26.4067L35.5811 27.4567ZM30.3602 31.3024L22.4767 36.7736L24.8748 38.0299C25.6854 38.4542 26.668 38.3924 27.4174 37.8724L34.4861 32.9645C35.8651 32.0073 35.8651 29.9909 34.4861 29.0336L34.0661 28.742L30.3602 31.3024ZM10.8001 18.5523C10.8001 15.0554 14.7644 13.0053 17.6514 15.0094L19.9042 16.5732C18.6967 17.5372 17.8839 19.0138 17.8839 20.7873V27.2045C17.8839 28.9802 18.699 30.4591 19.9098 31.4233L17.6514 32.9908C14.7644 34.9949 10.8001 32.9449 10.8001 29.448V18.5523ZM16.5564 16.5863C14.921 15.4512 12.7201 16.6317 12.7201 18.5523V29.448C12.7201 31.3686 14.921 32.5491 16.5564 31.4139L17.057 31.0652C16.3726 29.9664 15.9639 28.6555 15.9639 27.2045V20.7873C15.9639 19.3381 16.3716 18.0291 17.0542 16.9313L16.5564 16.5863ZM21.8439 20.7873C21.844 19.578 23.216 18.8707 24.213 19.5657L30.5889 24.0104L27.003 26.4986L24.2073 28.4298C23.2098 29.119 21.844 28.4109 21.8439 27.2045V20.7873ZM23.7639 26.402L25.9117 24.9189L27.2252 24.0067L23.7639 21.5926V26.402ZM23.9842 8.26973C25.4275 7.51402 27.1751 7.62274 28.5124 8.55098L35.5811 13.4579C38.0602 15.1789 38.0602 18.8225 35.5811 20.5435L34.0568 21.602L19.9211 11.7882C19.51 11.5028 19.0873 11.2601 18.6573 11.0588L23.9842 8.26973ZM27.4174 10.1279C26.668 9.60786 25.6854 9.54601 24.8748 9.97036L22.4767 11.2257L34.0558 19.2648L34.4861 18.9667C35.8651 18.0094 35.8651 15.993 34.4861 15.0357L27.4174 10.1279Z" fill="#101419"/>
<path d="M20.7348 1.20122C24.6789 -0.692372 29.36 -0.332121 32.972 2.17529L40.0408 7.08219C45.7793 11.0659 46.7641 18.7391 43.0062 23.9995C46.7649 29.2599 45.7795 36.9337 40.0408 40.9177L32.972 45.8246C29.3599 48.3322 24.679 48.6924 20.7348 46.7987L20.3551 46.6083L9.4941 40.9214C5.63455 38.9004 3.15864 34.9759 3.0075 30.6408L3 30.2198V17.781C3.00006 13.2803 5.51003 9.16567 9.4941 7.07938L20.3551 1.39154L20.7348 1.20122ZM25.6914 3.84593C26.0665 3.8314 26.4421 3.84206 26.8154 3.8778C26.909 3.88676 27.0025 3.89757 27.0958 3.90968C27.4677 3.95796 27.8366 4.03187 28.2001 4.12999C28.3823 4.17915 28.563 4.23432 28.742 4.29593C28.9207 4.35743 29.0978 4.42457 29.2726 4.49843C29.5349 4.60919 29.7924 4.73405 30.0442 4.87249C30.2963 5.0111 30.5426 5.16379 30.782 5.33L37.8508 10.2378C42.5832 13.5235 42.5834 20.4796 37.8508 23.7651L37.5114 24.0004L37.8508 24.2357C42.5834 27.5212 42.5833 34.4774 37.8508 37.763L30.782 42.6708C30.3035 43.003 29.7973 43.2798 29.2726 43.5015C29.185 43.5385 29.0969 43.5744 29.0083 43.6083C28.4777 43.8114 27.9299 43.9587 27.3742 44.0499C27.2816 44.0651 27.1888 44.0791 27.0958 44.0911C26.9095 44.1153 26.7225 44.133 26.5351 44.1446C26.4415 44.1504 26.3477 44.1541 26.2539 44.1568C25.9725 44.1648 25.6905 44.1594 25.4092 44.139C25.1282 44.1186 24.8478 44.0837 24.5692 44.0349C24.2901 43.986 24.013 43.9222 23.7386 43.8446C23.4644 43.7671 23.1931 43.6752 22.9257 43.569C22.7474 43.498 22.5705 43.4212 22.396 43.3374C22.3089 43.2956 22.2224 43.2521 22.1364 43.2071L11.2754 37.5202C11.1901 37.4755 11.1055 37.4297 11.0222 37.3824C10.8558 37.2878 10.6938 37.1872 10.5357 37.0824C10.4566 37.03 10.3782 36.9769 10.3013 36.922C10.0704 36.7574 9.84932 36.5817 9.63847 36.3961C9.5683 36.3344 9.49915 36.2716 9.43128 36.2077C9.15926 35.9514 8.90621 35.6777 8.67284 35.3892C8.38136 35.029 8.12119 34.6453 7.89471 34.2427C7.62298 33.7595 7.39987 33.2489 7.23002 32.7183C7.00344 32.0105 6.87122 31.2671 6.84471 30.5058L6.84002 30.2198V17.781C6.84003 17.4939 6.85461 17.2087 6.88408 16.9269C6.93317 16.4577 7.02278 15.9972 7.1494 15.5497C7.20005 15.3707 7.25661 15.1937 7.31909 15.0191C7.50661 14.4951 7.74639 13.9922 8.0344 13.5182C8.22636 13.2022 8.4396 12.8989 8.67284 12.6107C8.90609 12.3224 9.15944 12.0492 9.43128 11.7932C9.5673 11.665 9.70798 11.5412 9.85316 11.4219C9.92576 11.3623 9.99959 11.3039 10.0744 11.2466C10.2238 11.1321 10.3776 11.0223 10.5357 10.9175C10.6146 10.8652 10.6947 10.8145 10.7757 10.7647C10.8569 10.7148 10.939 10.6658 11.0222 10.6185L11.2754 10.4806L22.1364 4.79374C22.3948 4.65844 22.6582 4.53729 22.9257 4.43093C23.0147 4.39557 23.1041 4.36185 23.1939 4.32968C23.3739 4.26516 23.5556 4.20703 23.7386 4.1553C23.8301 4.12943 23.9221 4.10579 24.0142 4.08312C24.4741 3.96989 24.9407 3.89585 25.4092 3.86186C25.5032 3.85505 25.5973 3.84957 25.6914 3.84593ZM36.6752 25.8792C40.2543 28.3639 40.2552 33.6348 36.6761 36.1195L29.6073 41.0264C27.6825 42.3626 25.1697 42.5185 23.0935 41.4314L14.3344 36.8452L17.8435 35.2027C18.1742 35.0478 18.5028 34.8589 18.826 34.6345L28.1739 28.1451L28.1776 28.1432L34.0717 24.0717L36.6752 25.8792ZM29.2689 29.7229L19.921 36.2124C19.51 36.4977 19.0872 36.7404 18.6573 36.9417L23.9842 39.7308C24.2547 39.8725 24.536 39.9834 24.8232 40.0646C24.9192 40.0917 25.0158 40.1154 25.1129 40.1358C25.3068 40.1766 25.5025 40.2041 25.6989 40.2183C25.9933 40.2396 26.2888 40.2309 26.5811 40.193C26.7761 40.1677 26.9698 40.1301 27.1604 40.0786C27.3511 40.0271 27.5386 39.9621 27.722 39.8846C27.9052 39.8071 28.0841 39.7168 28.2573 39.6136L28.5123 39.4496L35.5811 34.5427C35.9684 34.2738 36.2954 33.9579 36.5617 33.6098C36.6683 33.4706 36.7652 33.3262 36.8524 33.1777C37.201 32.5831 37.3939 31.9207 37.4327 31.2511C37.4424 31.0837 37.4423 30.9159 37.4327 30.7486C37.423 30.5813 37.4045 30.4143 37.3755 30.2489C37.361 30.1659 37.3433 30.0835 37.3239 30.0014C37.2271 29.5917 37.0702 29.1936 36.8524 28.822C36.7652 28.6734 36.6682 28.5291 36.5617 28.3898C36.3487 28.1113 36.0967 27.8536 35.8061 27.6239C35.7335 27.5665 35.6586 27.5108 35.5811 27.457L34.0689 26.407L29.2689 29.7229ZM34.4861 29.0339C34.6585 29.1535 34.8097 29.2893 34.9389 29.4379C35.0681 29.5865 35.1753 29.7478 35.2614 29.917C35.3046 30.0017 35.3425 30.0884 35.3749 30.1767C35.4234 30.3091 35.4593 30.445 35.4836 30.5826C35.5806 31.1332 35.4838 31.7116 35.193 32.2064C35.1445 32.2889 35.091 32.3691 35.0317 32.4464C34.8836 32.6397 34.7016 32.8152 34.4861 32.9648L27.4173 37.8727C27.2301 38.0026 27.0283 38.1041 26.8183 38.1764C26.7656 38.1945 26.7124 38.2107 26.6589 38.2252C26.5519 38.2541 26.4431 38.2757 26.3336 38.2899C26.1693 38.3112 26.0031 38.3159 25.8376 38.3039C25.7274 38.296 25.6174 38.2808 25.5086 38.258C25.4542 38.2466 25.4001 38.2328 25.3464 38.2177C25.2387 38.1873 25.1324 38.1497 25.0286 38.1042C24.9767 38.0815 24.9254 38.0567 24.8748 38.0302L22.4767 36.7739L30.3601 31.3026L34.0661 28.7423L34.4861 29.0339ZM8.88003 18.5526C8.88003 13.4797 14.6078 10.559 18.7463 13.4319L23.116 16.4657L21.1023 18.0735C20.3699 18.6582 19.8692 19.5192 19.8095 20.5738L19.8038 20.7876V27.2048C19.8039 28.3582 20.3226 29.2979 21.106 29.9217L23.1245 31.5295L18.7463 34.568C14.6078 37.441 8.88015 34.5211 8.88003 29.4483V18.5526ZM15.2673 16.1451C15.3763 16.1498 15.486 16.1615 15.5954 16.1816C15.8141 16.2219 16.0323 16.2936 16.2441 16.4001C16.297 16.4266 16.3496 16.4554 16.4016 16.4863C16.4538 16.5173 16.5052 16.5511 16.5563 16.5866L17.0541 16.9316C16.3716 18.0294 15.9639 19.3385 15.9638 20.7876V27.2048L15.9685 27.4748C16.0159 28.8185 16.4153 30.0353 17.057 31.0655L16.5563 31.4142C16.3519 31.5561 16.1384 31.6613 15.9216 31.7339C15.7593 31.7883 15.5952 31.8241 15.4313 31.8426C15.1578 31.8736 14.8852 31.857 14.6241 31.7976C14.3631 31.7383 14.1138 31.6361 13.8863 31.4986C13.7954 31.4436 13.708 31.3829 13.6247 31.3167C13.1253 30.9196 12.7773 30.3287 12.7266 29.6264L12.7201 29.4483V18.5526C12.7201 18.0725 12.8576 17.6386 13.0894 17.2757C13.1475 17.1848 13.2115 17.0985 13.2807 17.0169C13.3843 16.8946 13.4999 16.7834 13.6247 16.6841C13.7081 16.6178 13.7952 16.5564 13.8863 16.5013C14.1591 16.3364 14.4636 16.2229 14.7816 16.1722C14.9409 16.1468 15.1035 16.1379 15.2673 16.1451ZM19.9238 20.7876C19.9242 18.0868 22.8704 16.5235 25.0979 17.8532L25.3107 17.991L33.9517 24.0145L28.0979 28.0757L28.0942 28.0786L25.2986 30.0098C23.0492 31.5636 19.9241 29.9853 19.9238 27.2048V20.7876ZM27.2251 24.007L25.9117 24.9192L23.7639 26.4023V21.5929L27.2251 24.007ZM23.0935 6.56844C25.1696 5.4815 27.6826 5.63742 29.6073 6.97344L36.6761 11.8803C40.1434 14.2873 40.2518 19.3092 37.0014 21.8798L36.6761 22.1207L34.0567 23.9395L18.826 13.3654C18.5029 13.141 18.1741 12.953 17.8435 12.7982L14.3344 11.1547L23.0935 6.56844ZM26.5811 7.80689C26.094 7.74365 25.5974 7.76222 25.1129 7.86407C24.9189 7.90488 24.727 7.95959 24.5382 8.0272C24.3498 8.0947 24.1645 8.17561 23.9842 8.27001L18.6573 11.0591C19.0873 11.2604 19.51 11.5031 19.921 11.7885L34.0567 21.6023L35.5811 20.5438C36.2007 20.1137 36.6653 19.5632 36.9752 18.9529C37.0915 18.7237 37.1866 18.4862 37.2593 18.2432C37.3076 18.0815 37.3465 17.9174 37.3755 17.7519C37.39 17.6692 37.4015 17.5859 37.4111 17.5026C37.4982 16.7525 37.3899 15.9833 37.0849 15.2807C37.0509 15.2025 37.014 15.1255 36.9752 15.0491C36.704 14.515 36.3145 14.0269 35.8061 13.625L35.5811 13.4582L28.5123 8.55126C28.2617 8.37727 27.9968 8.23143 27.722 8.11532C27.6303 8.07657 27.5373 8.04165 27.4436 8.00939C27.1626 7.91266 26.8736 7.84486 26.5811 7.80689ZM26.1686 9.69502C26.6094 9.72237 27.0425 9.86806 27.4173 10.1281L34.4861 15.036C34.6154 15.1258 34.7326 15.2246 34.8377 15.3313C35.3979 15.9 35.6131 16.684 35.4836 17.4182C35.4755 17.464 35.4663 17.5097 35.4555 17.5551C35.3693 17.9182 35.1972 18.2649 34.9389 18.5619C34.8096 18.7106 34.6585 18.8472 34.4861 18.9669L34.0558 19.2651L22.4767 11.226L24.8748 9.97065C24.9254 9.94414 24.9767 9.9193 25.0286 9.89658C25.0805 9.87382 25.133 9.85275 25.1861 9.83377C25.2919 9.79589 25.3997 9.7657 25.5086 9.74283C25.563 9.7314 25.6178 9.72241 25.6726 9.71471C25.7825 9.69929 25.893 9.69087 26.0036 9.69033C26.0586 9.69006 26.1137 9.69162 26.1686 9.69502ZM21.8439 27.2048C21.8441 28.3734 23.1256 29.074 24.1126 28.4901L24.2073 28.4301L27.0029 26.4989L30.5889 24.0107L24.2129 19.566C23.216 18.871 21.844 19.5783 21.8439 20.7876V27.2048ZM10.8 29.4483L10.8113 29.7717C11.0466 33.0692 14.8547 34.9325 17.6513 32.9911L19.9098 31.4236C18.7746 30.5197 17.9872 29.1631 17.8932 27.5339L17.8838 27.2048V20.7876C17.8839 19.0141 18.6967 17.5375 19.9042 16.5735L17.6513 15.0097C14.7644 13.0056 10.8 15.0557 10.8 18.5526V29.4483ZM4.92001 30.2198L4.92657 30.5733C4.96342 31.6306 5.16464 32.6593 5.51158 33.6286C5.74293 34.2749 6.03872 34.8949 6.39377 35.4792C6.45292 35.5766 6.51418 35.6726 6.57658 35.768C6.76382 36.054 6.96479 36.3313 7.18034 36.5977C7.75527 37.3082 8.42872 37.9443 9.1866 38.4849C9.56533 38.755 9.96535 39.0012 10.3847 39.2208L21.2457 44.9077C21.9867 45.2957 22.762 45.5864 23.5539 45.7815C23.8935 45.8651 24.2361 45.9308 24.5804 45.9793C25.1539 46.06 25.7319 46.0922 26.3083 46.0758C26.6544 46.066 26.9998 46.0389 27.3433 45.9943C28.8306 45.8012 30.2803 45.2832 31.5798 44.4465L31.877 44.2477L38.9458 39.3408C44.1956 35.6963 44.7193 28.3792 40.519 24.0004C44.6537 19.6901 44.2109 12.5325 39.1886 8.83345L38.9458 8.66002L31.877 3.75311C31.7789 3.685 31.6798 3.61871 31.5798 3.55436C31.4798 3.48994 31.3788 3.42751 31.277 3.36686C30.5653 2.94279 29.8126 2.61122 29.0364 2.37311C28.9253 2.33902 28.8137 2.30679 28.7017 2.27654C27.5836 1.97463 26.4229 1.86392 25.2704 1.94748C25.155 1.95585 25.0397 1.96615 24.9245 1.97842C24.5794 2.01517 24.2354 2.06875 23.8942 2.1406C23.6666 2.18853 23.4403 2.24482 23.2154 2.30842C22.7659 2.43554 22.3226 2.59368 21.8889 2.78373C21.7803 2.83128 21.6727 2.88129 21.5654 2.9328C21.4582 2.98427 21.3516 3.03768 21.2457 3.09311L10.3847 8.78001C9.75559 9.10946 9.17018 9.49863 8.63441 9.93877C8.45562 10.0857 8.28258 10.2384 8.11503 10.3963C7.94769 10.5539 7.78604 10.7168 7.63034 10.8847C7.16298 11.3887 6.74878 11.9373 6.39377 12.5216C6.03888 13.1057 5.74287 13.7253 5.51158 14.3713C5.12596 15.4485 4.92003 16.5993 4.92001 17.781V30.2198ZM8.76003 30.2198C8.76014 32.5616 10.0658 34.719 12.165 35.8186L23.027 41.5055L23.2276 41.6068C25.3103 42.6065 27.7836 42.4144 29.687 41.093L36.7558 36.1861L37.0858 35.9414C40.3846 33.3339 40.2748 28.2568 36.7567 25.8135L34.142 24.0004L36.4174 22.4226L36.7558 22.1873C40.2746 19.7443 40.3847 14.6672 37.0858 12.0594L36.7558 11.8147L29.687 6.90688C27.7836 5.5856 25.3103 5.3943 23.2276 6.39407L23.027 6.49438L12.166 12.1813C10.0662 13.2808 8.76007 15.4388 8.76003 17.781V30.2198Z" fill="#101419"/>
<path fill-rule="evenodd" clip-rule="evenodd" d="M22.1368 4.79367C24.8923 3.35089 28.2291 3.558 30.782 5.33026L37.8507 10.2375C42.5835 13.523 42.5835 20.4793 37.8507 23.7649L37.5116 24.0003L37.8507 24.2358C42.5835 27.5213 42.5835 34.4776 37.8507 37.7632L30.782 42.6704C28.2291 44.4426 24.8923 44.6497 22.1369 43.207L11.2756 37.5199C8.54747 36.0914 6.84009 33.2813 6.84009 30.2196V17.781C6.84009 14.7194 8.54747 11.9092 11.2756 10.4807L22.1368 4.79367ZM35.5814 20.5441L34.0571 21.6022L19.9207 11.7886C19.5096 11.5031 19.087 11.2608 18.6569 11.0595L23.9843 8.27C25.4276 7.51426 27.1754 7.62275 28.5127 8.55107L35.5814 13.4583C38.0605 15.1793 38.0605 18.8231 35.5814 20.5441ZM10.7997 29.4484V18.5523C10.7997 15.0554 14.7645 13.0053 17.6514 15.0094L19.9043 16.5734C18.6967 17.5374 17.8839 19.014 17.8839 20.7877V27.2046C17.8839 28.9804 18.6991 30.4592 19.91 31.4233L17.6514 32.9913C14.7645 34.9954 10.7997 32.9452 10.7997 29.4484ZM30.5885 24.0102L27.0034 26.499L24.2076 28.4304C23.21 29.1196 21.8435 28.411 21.8435 27.2046V20.7877C21.8435 19.5783 23.2159 18.8704 24.2129 19.5655L30.5885 24.0102ZM29.2689 29.7225L19.9207 36.2121C19.5096 36.4975 19.087 36.7398 18.6569 36.9412L23.9843 39.7306C25.4276 40.4864 27.1754 40.3779 28.5127 39.4496L35.5814 34.5424C38.0605 32.8214 38.0605 29.1776 35.5814 27.4566L34.0688 26.4065L29.2689 29.7225Z" fill="#F8F9FA"/>
</svg>
